<svg xmlns="http://www.w3.org/2000/svg" width="57.604" height="45" viewBox="0 0 57.604 45">
  <path id="car" d="M13.5,27a4.5,4.5,0,0,0-4.5-4.5,4.364,4.364,0,0,0-3.18,1.319,4.492,4.492,0,0,0,0,6.359A4.364,4.364,0,0,0,9,31.5,4.5,4.5,0,0,0,13.5,27Zm1.014-9H43.093L40.588,7.961a1.029,1.029,0,0,0-.392-.49,1.008,1.008,0,0,0-.593-.265H18a1.027,1.027,0,0,0-.593.265.983.983,0,0,0-.392.49ZM53.1,27a4.5,4.5,0,1,0-1.319,3.18A4.346,4.346,0,0,0,53.1,27Zm4.5-2.7V35.1a.867.867,0,0,1-.9.9H54v3.6a5.4,5.4,0,1,1-10.795,0V36H14.4v3.6a5.206,5.206,0,0,1-1.573,3.825A5.206,5.206,0,0,1,9,45a5.206,5.206,0,0,1-3.825-1.573A5.206,5.206,0,0,1,3.606,39.6V36H.9a.867.867,0,0,1-.9-.9V24.3a6.074,6.074,0,0,1,1.843-4.459A6.074,6.074,0,0,1,6.3,18h.789L10.046,6.215a7.9,7.9,0,0,1,2.926-4.43A7.971,7.971,0,0,1,18,0H39.6a7.964,7.964,0,0,1,5.035,1.786,7.934,7.934,0,0,1,2.926,4.43L50.518,18h.789a6.284,6.284,0,0,1,6.3,6.3Z" fill="#fff"/>
</svg>
