<svg xmlns="http://www.w3.org/2000/svg" width="57.604" height="45" viewBox="0 0 57.604 45">
  <g id="Group_2811" data-name="Group 2811" transform="translate(-17.427 -1300)">
    <path id="Path_6692" data-name="Path 6692" d="M2973.5,2338.5l-4.25,7.75v7h33s1.25-5.25,0-7-3.5-7.75-3.5-7.75-1.25,1-4.25,0-15.75,0-15.75,0Z" transform="translate(-2939 -1033)" fill="#002e5b"/>
    <path id="Path_6693" data-name="Path 6693" d="M2970.25,2355.5l1.75,5.25s.5,2,0,2.75-2.5,2.75-3.75,3-1.75-.25-3.25,0-2,2.25-3.25,0-1.75-1.25-1.75-3v-4.25s-3.25-2.75-1.25-3.75a23.289,23.289,0,0,1,6.25-1.5C2965.25,2354,2970.25,2355.5,2970.25,2355.5Z" transform="translate(-2939 -1033)" fill="#002e5b"/>
    <path id="Path_6694" data-name="Path 6694" d="M2970.25,2355.5l1.75,5.25s.5,2,0,2.75-2.5,2.75-3.75,3-1.75-.25-3.25,0-2,2.25-3.25,0-1.75-1.25-1.75-3v-4.25s-3.25-2.75-1.25-3.75a23.289,23.289,0,0,1,6.25-1.5C2965.25,2354,2970.25,2355.5,2970.25,2355.5Z" transform="translate(-2899 -1033)" fill="#002e5b"/>
    <path id="car" d="M13.5,27a4.5,4.5,0,0,0-4.5-4.5,4.364,4.364,0,0,0-3.18,1.319,4.492,4.492,0,0,0,0,6.359A4.364,4.364,0,0,0,9,31.5,4.5,4.5,0,0,0,13.5,27Zm1.014-9H43.093L40.588,7.961a1.029,1.029,0,0,0-.392-.49,1.008,1.008,0,0,0-.593-.265H18a1.027,1.027,0,0,0-.593.265.983.983,0,0,0-.392.49ZM53.1,27a4.5,4.5,0,1,0-1.319,3.18A4.346,4.346,0,0,0,53.1,27Zm4.5-2.7V35.1a.867.867,0,0,1-.9.9H54v3.6a5.4,5.4,0,1,1-10.795,0V36H14.4v3.6a5.206,5.206,0,0,1-1.573,3.825A5.206,5.206,0,0,1,9,45a5.206,5.206,0,0,1-3.825-1.573A5.206,5.206,0,0,1,3.606,39.6V36H.9a.867.867,0,0,1-.9-.9V24.3a6.074,6.074,0,0,1,1.843-4.459A6.074,6.074,0,0,1,6.3,18h.789L10.046,6.215a7.9,7.9,0,0,1,2.926-4.43A7.971,7.971,0,0,1,18,0H39.6a7.964,7.964,0,0,1,5.035,1.786,7.934,7.934,0,0,1,2.926,4.43L50.518,18h.789a6.284,6.284,0,0,1,6.3,6.3Z" transform="translate(17.427 1300)" fill="#05c5db"/>
  </g>
</svg>
