<svg xmlns="http://www.w3.org/2000/svg" xmlns:xlink="http://www.w3.org/1999/xlink" width="400.64" height="287.72" viewBox="0 0 400.64 287.72">
  <defs>
    <clipPath id="clip-path">
      <circle id="Ellipse_22" data-name="Ellipse 22" cx="47.37" cy="47.37" r="47.37" transform="translate(0 66.992) rotate(-45)" fill="#fff"/>
    </clipPath>
    <clipPath id="clip-path-2">
      <circle id="Ellipse_25" data-name="Ellipse 25" cx="47.37" cy="47.37" r="47.37" fill="#fff"/>
    </clipPath>
  </defs>
  <g id="About_us_page-rafiki" data-name="About us page-rafiki" transform="translate(-82.33 -86)">
    <g id="freepik--background-complete--inject-38" transform="translate(0 55)">
      <path id="Path_184" data-name="Path 184" d="M231.27,134.14a7.37,7.37,0,0,1,7.35-7.35h229a7.37,7.37,0,0,1,7.35,7.35V157.8H231.27Z" transform="translate(8 -55)" fill="#002e5b" opacity="0.2"/>
      <circle id="Ellipse_11" data-name="Ellipse 11" cx="5.56" cy="5.56" r="5.56" transform="translate(289.816 81.74)" fill="#fff"/>
      <circle id="Ellipse_12" data-name="Ellipse 12" cx="5.56" cy="5.56" r="5.56" transform="translate(269.794 81.74)" fill="#fff"/>
      <circle id="Ellipse_13" data-name="Ellipse 13" cx="5.56" cy="5.56" r="5.56" transform="translate(249.782 81.74)" fill="#fff"/>
      <path id="Path_185" data-name="Path 185" d="M467.59,285.2h-229a7.37,7.37,0,0,1-7.35-7.35v-120h243.7v120a7.37,7.37,0,0,1-7.35,7.35Z" transform="translate(8 -55)" fill="#05c5db" opacity="0.2"/>
      <path id="Path_186" data-name="Path 186" d="M198.55,175.07a7.37,7.37,0,0,1,7.35-7.35h229a7.37,7.37,0,0,1,7.35,7.35v23.66H198.55Z" transform="translate(8 -55)" fill="#f0f0f0"/>
      <circle id="Ellipse_14" data-name="Ellipse 14" cx="5.56" cy="5.56" r="5.56" transform="translate(256.551 122.67)" fill="#e6e6e6"/>
      <circle id="Ellipse_15" data-name="Ellipse 15" cx="5.56" cy="5.56" r="5.56" transform="translate(236.528 122.67)" fill="#e6e6e6"/>
      <circle id="Ellipse_16" data-name="Ellipse 16" cx="5.56" cy="5.56" r="5.56" transform="translate(216.516 122.67)" fill="#e6e6e6"/>
      <path id="Path_187" data-name="Path 187" d="M434.86,326.13h-229a7.37,7.37,0,0,1-7.35-7.35v-120h243.7v120a7.37,7.37,0,0,1-7.35,7.35Z" transform="translate(8 -55)" fill="#fafafa"/>
      <path id="Path_188" data-name="Path 188" d="M165.82,216a7.37,7.37,0,0,1,7.35-7.35h229a7.37,7.37,0,0,1,7.35,7.35v23.66H165.82Z" transform="translate(5.176 -55)" fill="#fafafa"/>
      <circle id="Ellipse_17" data-name="Ellipse 17" cx="5.56" cy="5.56" r="5.56" transform="translate(223.285 163.6)" fill="#f0f0f0"/>
      <circle id="Ellipse_18" data-name="Ellipse 18" cx="5.56" cy="5.56" r="5.56" transform="translate(203.263 163.6)" fill="#f0f0f0"/>
      <circle id="Ellipse_19" data-name="Ellipse 19" cx="5.56" cy="5.56" r="5.56" transform="translate(183.25 163.6)" fill="#f0f0f0"/>
      <path id="Path_189" data-name="Path 189" d="M402.13,367.06h-229a7.37,7.37,0,0,1-7.35-7.35v-120h243.7v120a7.37,7.37,0,0,1-7.35,7.35Z" transform="translate(5.175 -55)" fill="#e6e6e6"/>
    </g>
    <g id="freepik--Page--inject-38" transform="translate(82.33 82.5)">
      <path id="Path_190" data-name="Path 190" d="M90.33,86H409.67a12,12,0,0,1,12,12V373.72H78.33V98A12,12,0,0,1,90.33,86Z" transform="translate(-78.33 -82.5)" fill="#002e5b"/>
      <rect id="Rectangle_113" data-name="Rectangle 113" width="343.33" height="265.06" transform="translate(0 21.5)" fill="#fff" opacity="0.8"/>
      <rect id="Rectangle_114" data-name="Rectangle 114" width="343.33" height="58.27" transform="translate(0 21.5)" fill="#05c5db" opacity="0.4"/>
      <rect id="Rectangle_115" data-name="Rectangle 115" width="9.43" height="9.43" transform="translate(315.82 34.07)" fill="#002e5b" opacity="0.4"/>
      <rect id="Rectangle_116" data-name="Rectangle 116" width="9.43" height="9.43" transform="translate(301.83 34.07)" fill="#002e5b" opacity="0.4"/>
      <rect id="Rectangle_117" data-name="Rectangle 117" width="9.43" height="9.43" transform="translate(287.839 34.07)" fill="#002e5b" opacity="0.4"/>
      <rect id="Rectangle_118" data-name="Rectangle 118" width="14.33" height="1.44" transform="translate(50.63 277)" fill="#002e5b" opacity="0.4"/>
      <rect id="Rectangle_119" data-name="Rectangle 119" width="14.33" height="1.44" transform="translate(29.37 277)" fill="#002e5b" opacity="0.4"/>
      <rect id="Rectangle_120" data-name="Rectangle 120" width="14.33" height="1.44" transform="translate(8.11 277)" fill="#002e5b" opacity="0.4"/>
      <path id="Path_191" data-name="Path 191" d="M215.69,137.2h-4.37l-.61,2.06h-3.93l4.68-12.47h4.21l4.68,12.47h-4Zm-.8-2.69L213.52,130l-1.37,4.49Z" transform="translate(-78.33 -82.5)" fill="#fff"/>
      <path id="Path_192" data-name="Path 192" d="M221.36,126.79h3.5v4.32a3.33,3.33,0,0,1,1.17-.81,3.84,3.84,0,0,1,1.46-.28,3.54,3.54,0,0,1,2.73,1.19,4.9,4.9,0,0,1,1.08,3.41,6.42,6.42,0,0,1-.49,2.6,3.77,3.77,0,0,1-1.37,1.69,3.5,3.5,0,0,1-1.93.55,3.6,3.6,0,0,1-1.67-.39,4.23,4.23,0,0,1-1.24-1.15v1.34h-3.24Zm3.47,7.93a2.65,2.65,0,0,0,.44,1.69,1.4,1.4,0,0,0,1.11.52,1.28,1.28,0,0,0,1-.52,2.76,2.76,0,0,0,.42-1.73,2.5,2.5,0,0,0-.41-1.57,1.27,1.27,0,0,0-1-.5,1.42,1.42,0,0,0-1.15.52,2.39,2.39,0,0,0-.41,1.59Z" transform="translate(-78.33 -82.5)" fill="#fff"/>
      <path id="Path_193" data-name="Path 193" d="M232.53,134.77a4.54,4.54,0,0,1,1.4-3.41A5.22,5.22,0,0,1,237.7,130a5.16,5.16,0,0,1,4.09,1.58,4.9,4.9,0,0,1-.26,6.53,5.28,5.28,0,0,1-3.83,1.33,5.41,5.41,0,0,1-3.52-1.1A4.44,4.44,0,0,1,232.53,134.77Zm3.47,0a2.77,2.77,0,0,0,.49,1.79,1.62,1.62,0,0,0,2.46,0,2.82,2.82,0,0,0,.48-1.83A2.67,2.67,0,0,0,239,133a1.53,1.53,0,0,0-1.2-.57,1.55,1.55,0,0,0-1.25.58,2.69,2.69,0,0,0-.55,1.75Z" transform="translate(-78.33 -82.5)" fill="#fff"/>
      <path id="Path_194" data-name="Path 194" d="M254.09,139.26h-3.23V137.8a4.67,4.67,0,0,1-1.46,1.28,3.82,3.82,0,0,1-1.81.38,2.94,2.94,0,0,1-2.24-.85,3.71,3.71,0,0,1-.81-2.63v-5.75H248v5a1.83,1.83,0,0,0,.31,1.21,1.12,1.12,0,0,0,.89.36,1.25,1.25,0,0,0,1-.48,2.68,2.68,0,0,0,.4-1.71v-4.34h3.46Z" transform="translate(-78.33 -82.5)" fill="#fff"/>
      <path id="Path_195" data-name="Path 195" d="M260.37,126.79v3.44h1.9v2.53h-1.9V136a1.67,1.67,0,0,0,.11.77.62.62,0,0,0,.59.28,3.66,3.66,0,0,0,1.07-.22l.26,2.39a11.14,11.14,0,0,1-2.4.28,4.14,4.14,0,0,1-1.9-.33,2,2,0,0,1-.91-1,5.849,5.849,0,0,1-.29-2.19V132.8h-1.28v-2.53h1.28v-1.66Z" transform="translate(-78.33 -82.5)" fill="#fff"/>
      <path id="Path_196" data-name="Path 196" d="M278.07,126.79h3.84v7.43a6.269,6.269,0,0,1-.34,2.09,4.52,4.52,0,0,1-1.08,1.71,4.42,4.42,0,0,1-1.54,1,8,8,0,0,1-2.7.41,16,16,0,0,1-2-.13,5.12,5.12,0,0,1-1.79-.5,4.34,4.34,0,0,1-1.33-1.08,3.94,3.94,0,0,1-.82-1.43,7.41,7.41,0,0,1-.35-2.11v-7.43h3.84v7.61a2.19,2.19,0,0,0,.56,1.59,2.12,2.12,0,0,0,1.57.57,2.07,2.07,0,0,0,1.56-.56,2.16,2.16,0,0,0,.57-1.6Z" transform="translate(-78.33 -82.5)" fill="#fff"/>
      <path id="Path_197" data-name="Path 197" d="M283.62,136.75l3.44-.32a1.66,1.66,0,0,0,.59.87,1.76,1.76,0,0,0,1,.27,1.69,1.69,0,0,0,1.08-.3.66.66,0,0,0,.3-.55.64.64,0,0,0-.39-.58,7.369,7.369,0,0,0-1.49-.36,15.221,15.221,0,0,1-2.5-.58,2.66,2.66,0,0,1-1.18-.9,2.32,2.32,0,0,1-.49-1.46,2.4,2.4,0,0,1,.52-1.53,3.22,3.22,0,0,1,1.43-1,7.67,7.67,0,0,1,2.44-.32,8.651,8.651,0,0,1,2.39.25,3.12,3.12,0,0,1,1.28.77,4,4,0,0,1,.86,1.4l-3.29.32a1.1,1.1,0,0,0-.42-.64,1.74,1.74,0,0,0-1-.27,1.38,1.38,0,0,0-.85.21.63.63,0,0,0-.27.51.54.54,0,0,0,.34.5,5.711,5.711,0,0,0,1.48.3,9.76,9.76,0,0,1,2.57.55,2.84,2.84,0,0,1,1.29,1,2.48,2.48,0,0,1,.44,1.42,2.82,2.82,0,0,1-.47,1.52,3.24,3.24,0,0,1-1.49,1.18,7.21,7.21,0,0,1-2.77.43,6.57,6.57,0,0,1-3.52-.7A3.18,3.18,0,0,1,283.62,136.75Z" transform="translate(-78.33 -82.5)" fill="#fff"/>
      <circle id="Ellipse_20" data-name="Ellipse 20" cx="50" cy="50" r="50" transform="translate(20.85 92.62)" fill="#002e5b"/>
      <circle id="Ellipse_21" data-name="Ellipse 21" cx="47.37" cy="47.37" r="47.37" transform="translate(3.86 142.618) rotate(-45)" fill="#fff"/>
      <g id="Group_3" data-name="Group 3" transform="translate(3.86 75.626)" clip-path="url(#clip-path)">
        <path id="Path_198" data-name="Path 198" d="M151.6,235l4-8.32s20.88,6.6,24,8.13c-.08-5.22,2.58-15,2.87-20.36.79-.75,2.7-2.64,3.69-2.57,3,7,2.35,31-3.55,31.43C173.18,243.91,151.6,235,151.6,235Z" transform="translate(-82.19 -158.126)" fill="#b55b52"/>
        <path id="Path_199" data-name="Path 199" d="M149,233.7c2.41,5.65,22.2,10.68,22.2,10.68l4-12.16s-7.54-5.72-15.37-7.57C151.82,222.74,146.34,227.5,149,233.7Z" transform="translate(-82.19 -158.126)" fill="#05c5db"/>
        <path id="Path_200" data-name="Path 200" d="M149.35,234.36c2.35,3.55,11.09,6.77,16.78,8.56C162.34,235.56,157.23,231.5,149.35,234.36Z" transform="translate(-82.19 -158.126)" opacity="0.2"/>
        <path id="Path_201" data-name="Path 201" d="M182.45,215.51l-3.19-4.09,5.9-3.29a10.32,10.32,0,0,1,1.71,5.93Z" transform="translate(-82.19 -158.126)" fill="#b55b52"/>
        <path id="Path_202" data-name="Path 202" d="M178.39,205.76l5.75-.93,1.02,3.3-5.9,3.29Z" transform="translate(-82.19 -158.126)" fill="#b55b52"/>
        <path id="Path_203" data-name="Path 203" d="M160.31,225.06s8.06,19.4,1.74,55.55h-31.5c-.37-5.28,2.32-31-3.38-55.88a87.921,87.921,0,0,1,11.47-1.46,127.077,127.077,0,0,1,14.61,0C158.35,223.74,160.31,225.06,160.31,225.06Z" transform="translate(-82.19 -158.126)" fill="#05c5db"/>
        <path id="Path_204" data-name="Path 204" d="M134.78,230.86c.68,4.1-.37,13.89-4,25.2a165.592,165.592,0,0,0-3.08-28.86h0C130,226.92,134.14,227,134.78,230.86Z" transform="translate(-82.19 -158.126)" opacity="0.2"/>
        <path id="Path_205" data-name="Path 205" d="M140.21,209.61c1,4.7,1.64,10.53-1.57,13.66,0,0,2,4.77,10.74,4.77,8,0,3.87-4.77,3.87-4.77-5.27-1.25-5.16-7.73-4.33-11.39Z" transform="translate(-82.19 -158.126)" fill="#b55b52"/>
        <path id="Path_206" data-name="Path 206" d="M149.79,227.66l1.9,2.1a.57.57,0,0,1,.12.54l-.61,1.85a.53.53,0,0,1-.48.36l-2,.1a.54.54,0,0,1-.49-.25L147,230.57a.56.56,0,0,1,0-.67l2-2.24a.56.56,0,0,1,.79,0Z" transform="translate(-82.19 -158.126)" fill="#fff"/>
        <path id="Path_207" data-name="Path 207" d="M149.38,227.2a11.06,11.06,0,0,0-1.56,5.36s-11-3.86-10.67-9.52c0,0,1.53-.92,2.5-1.67C139.65,221.37,140.11,224.94,149.38,227.2Z" transform="translate(-82.19 -158.126)" fill="#263238"/>
        <path id="Path_208" data-name="Path 208" d="M149.38,227.2a15.66,15.66,0,0,1,2.25,5s4.88-3.36,3.25-8.95a19.658,19.658,0,0,0-2.82-.89S152.8,226,149.38,227.2Z" transform="translate(-82.19 -158.126)" fill="#263238"/>
        <path id="Path_209" data-name="Path 209" d="M150.27,232.22s3.13,23,3.2,27a38.82,38.82,0,0,1-1.77,11.16s-2.15-4.07-2.52-11.33.08-22.76-.08-26.84Z" transform="translate(-82.19 -158.126)" fill="#fff"/>
        <path id="Path_210" data-name="Path 210" d="M148.92,211.89a14.15,14.15,0,0,0,.22,7.72,8.57,8.57,0,0,1-2.35-.72c-3-1.4-4.51-3.59-6.1-6.84-.14-.84-.3-1.65-.47-2.44Z" transform="translate(-82.19 -158.126)" opacity="0.2"/>
        <path id="Path_211" data-name="Path 211" d="M157.21,208.59a5.86,5.86,0,0,1-3.5,2.95c-2,.59-3.09-1.24-2.59-3.19.46-1.76,2-4.18,4.1-3.93a2.79,2.79,0,0,1,1.99,4.17Z" transform="translate(-82.19 -158.126)" fill="#b55b52"/>
        <path id="Path_212" data-name="Path 212" d="M157.21,208.59a5.86,5.86,0,0,1-3.5,2.95c-2,.59-3.09-1.24-2.59-3.19.46-1.76,2-4.18,4.1-3.93a2.79,2.79,0,0,1,1.99,4.17Z" transform="translate(-82.19 -158.126)" opacity="0.2"/>
        <path id="Path_213" data-name="Path 213" d="M151.41,204.52c2,1.83,5.65-8.21,1.56-11s-5.52,1-5.45,3.31S148.39,201.81,151.41,204.52Z" transform="translate(-82.19 -158.126)" fill="#263238"/>
        <path id="Path_214" data-name="Path 214" d="M137.75,202.83c.94,6.36,1.17,10.13,4.64,13.2,5.21,4.61,12.74,1.15,13.69-5.33.86-5.84-.82-15.27-7.21-17.4a8.51,8.51,0,0,0-11.12,9.53Z" transform="translate(-82.19 -158.126)" fill="#b55b52"/>
        <path id="Path_215" data-name="Path 215" d="M137.35,208.23c1.1.71,2.61,2.63,4.88-.77,0-.88-2.23-2.36-2.4-4.44-.2-2.42-.73-5-2.69-5.85-4.47-2-5.29,1.84-4.85,4.14S133.94,206,137.35,208.23Z" transform="translate(-82.19 -158.126)" fill="#263238"/>
        <path id="Path_216" data-name="Path 216" d="M136.75,199.41c10.55-1.64,16.78-2,19.95-5.95s-1.7-8.84-7-9.4c-.38,2.06-5.75,7.48-14,9.83a2.48,2.48,0,0,0-.71,4.46C136,199,136.75,199.41,136.75,199.41Z" transform="translate(-82.19 -158.126)" fill="#263238"/>
        <path id="Path_217" data-name="Path 217" d="M135.52,210.07a6.15,6.15,0,0,0,4,2.43c2.09.32,2.84-1.63,2-3.49-.75-1.68-2.74-3.86-4.72-3.33S134.35,208.46,135.52,210.07Z" transform="translate(-82.19 -158.126)" fill="#b55b52"/>
        <path id="Path_218" data-name="Path 218" d="M147.46,204c0,.52.36.93.69.9s.57-.46.53-1-.35-.92-.69-.9S147.42,203.44,147.46,204Z" transform="translate(-82.19 -158.126)" fill="#263238"/>
        <path id="Path_219" data-name="Path 219" d="M153.26,203.57c.05.52.36.92.69.9s.57-.46.53-1-.36-.93-.69-.9S153.22,203.05,153.26,203.57Z" transform="translate(-82.19 -158.126)" fill="#263238"/>
        <path id="Path_221" data-name="Path 221" d="M5.359,2.931A.192.192,0,0,0,5.5,2.845a.264.264,0,0,0,.043-.182.27.27,0,0,0-.073-.173.2.2,0,0,0-.156-.062A5.5,5.5,0,0,1,.386.1a.2.2,0,0,0-.3-.05A.281.281,0,0,0,.043.4,5.816,5.816,0,0,0,5.359,2.931Z" transform="matrix(0.875, -0.485, 0.485, 0.875, 66.343, 51.945)" fill="#263238"/>
        <path id="Path_222" data-name="Path 222" d="M145.55,202.18a.28.28,0,0,0,.23-.13,2.35,2.35,0,0,1,1.84-1.16.29.29,0,0,0,.3-.3.31.31,0,0,0-.31-.31,2.91,2.91,0,0,0-2.34,1.43.3.3,0,0,0,.1.42.24.24,0,0,0,.18.05Z" transform="translate(-82.19 -158.126)" fill="#263238"/>
        <path id="Path_223" data-name="Path 223" d="M155.69,201.31l.12-.05a.3.3,0,0,0,.08-.43,3.06,3.06,0,0,0-2.4-1.42.3.3,0,0,0-.3.31.31.31,0,0,0,.31.3h0a2.43,2.43,0,0,1,1.89,1.15.34.34,0,0,0,.3.14Z" transform="translate(-82.19 -158.126)" fill="#263238"/>
        <path id="Path_224" data-name="Path 224" d="M123.55,233.26l8.1,4.76s-10.22,20-9.11,23.12c1.51,4.2,3.8,13.43,6.48,18-.26,1-1.76,3.43-2.64,3.88-6.44-4.32-13.49-18.47-13.47-22.51C113,251.34,123.55,233.26,123.55,233.26Z" transform="translate(-82.19 -158.126)" fill="#b55b52"/>
        <path id="Path_225" data-name="Path 225" d="M127.17,224.73c-6.06.88-12.51,22-12.51,22L129,251.3a115.8,115.8,0,0,0,6.63-14.87C138.29,228.63,133.67,223.78,127.17,224.73Z" transform="translate(-82.19 -158.126)" fill="#05c5db"/>
        <path id="Path_226" data-name="Path 226" d="M127.55,278.34l6.11-.44-3.08,6.74s-5.36.21-6.34-3.88Z" transform="translate(-82.19 -158.126)" fill="#b55b52"/>
        <path id="Path_227" data-name="Path 227" d="M138.7,281l-3.1,5.97-5.02-2.33,3.08-6.74Z" transform="translate(-82.19 -158.126)" fill="#b55b52"/>
      </g>
      <circle id="Ellipse_23" data-name="Ellipse 23" cx="50" cy="50" r="50" transform="translate(222.49 176.94)" fill="#002e5b"/>
      <circle id="Ellipse_24" data-name="Ellipse 24" cx="47.37" cy="47.37" r="47.37" transform="translate(225.12 179.57)" fill="#fff"/>
      <g id="Group_4" data-name="Group 4" transform="translate(225.12 179.57)" clip-path="url(#clip-path-2)">
        <path id="Path_228" data-name="Path 228" d="M348.64,273.44c-7.11-.64-11.54,10.3-10.06,27,9,5.11,19.31,0,27.56,4.11C373.77,292.88,371.74,266.56,348.64,273.44Z" transform="translate(-303.45 -262.07)" fill="#263238"/>
        <path id="Path_229" data-name="Path 229" d="M337.54,321.78a53.212,53.212,0,0,1-4.29,10.94,24.479,24.479,0,0,1-3.66,5.25,12,12,0,0,1-1.37,1.26,6.2,6.2,0,0,1-2.67,1.35,4.72,4.72,0,0,1-2.29-.1,4.83,4.83,0,0,1-1.79-1,6.68,6.68,0,0,1-1.56-2.09,14.769,14.769,0,0,1-1.09-3.33,27.28,27.28,0,0,1-.48-3c-.22-2-.32-3.86-.35-5.76a93.928,93.928,0,0,1,.51-11.25l3.68.07c.32,3.6.69,7.24,1.16,10.78.25,1.77.53,3.53.89,5.21.18.83.39,1.65.61,2.4a8.279,8.279,0,0,0,.77,1.86c.11.18.25.28.08.09a1.689,1.689,0,0,0-.59-.33,2,2,0,0,0-.93-.06c-.45.08-.48.21-.3,0a7.222,7.222,0,0,0,.59-.68,21.411,21.411,0,0,0,2.31-4,48.732,48.732,0,0,0,1.94-4.73c.6-1.61,1.16-3.34,1.65-4.9Z" transform="translate(-303.45 -262.07)" fill="#ffb573"/>
        <path id="Path_230" data-name="Path 230" d="M332.6,312.15c-3,.77-5.1,13.11-5.1,13.11l11.47,7.8s4.72-14.63,2.41-17.93S337,311,332.6,312.15Z" transform="translate(-303.45 -262.07)" fill="#263238"/>
        <path id="Path_231" data-name="Path 231" d="M332.87,314.91l-2.31,12.44,4.65,3.15Z" transform="translate(-303.45 -262.07)" opacity="0.2"/>
        <path id="Path_232" data-name="Path 232" d="M322.34,315.15l1.52-7.67-6.1,1.77s-.6,5.31,1.86,7.06Z" transform="translate(-303.45 -262.07)" fill="#ffb573"/>
        <path id="Path_233" data-name="Path 233" d="M323.25,304.11l-5.04,2.09-.45,3.05,6.1-1.77Z" transform="translate(-303.45 -262.07)" fill="#ffb573"/>
        <path id="Path_234" data-name="Path 234" d="M332.6,312.15s-3.47,1.23,3.48,43.93h29.55c-.49-12-.51-19.45,5.24-44.14a88,88,0,0,0-12.55-1.65,93.825,93.825,0,0,0-13.42,0C339.14,310.82,332.6,312.15,332.6,312.15Z" transform="translate(-303.45 -262.07)" fill="#263238"/>
        <path id="Path_235" data-name="Path 235" d="M368.44,321.72c-2.68.66-5.16,3.59-4.86,9a13,13,0,0,0,2.47,6.78c.47-4.14,1.26-8.95,2.52-15.09Z" transform="translate(-303.45 -262.07)" opacity="0.2"/>
        <path id="Path_236" data-name="Path 236" d="M346.46,319.76s4.84,4,4.84,8.23c4-2.95,9.45-11,10-16.11a1.54,1.54,0,0,0-1.46-1.68,8.8,8.8,0,0,1-1.08-.14,1,1,0,0,0-.86.22Z" transform="translate(-303.45 -262.07)" fill="#fafafa"/>
        <path id="Path_237" data-name="Path 237" d="M346.46,319.76a12.24,12.24,0,0,0-4.85,8.23c-4.08-3-2.39-12.23-.12-16.59a2.34,2.34,0,0,1,1.82-1.24c.59-.07,1.05-.15,1.35-.21a.4.4,0,0,1,.48.34Z" transform="translate(-303.45 -262.07)" fill="#fafafa"/>
        <path id="Path_238" data-name="Path 238" d="M357,295.18c-.84,4.32-1.69,12.23,1.33,15.11a37.91,37.91,0,0,1-11.86,9.47c-6-4.79-1.56-9.47-1.56-9.47,4.82-1.15,4.69-4.72,3.85-8.08Z" transform="translate(-303.45 -262.07)" fill="#ffb573"/>
        <path id="Path_239" data-name="Path 239" d="M353.63,298.05l-4.87,4.16a14.29,14.29,0,0,1,.41,2.38c1.84-.26,4.73-1.83,5.13-3.83a5.67,5.67,0,0,0-.67-2.71Z" transform="translate(-303.45 -262.07)" opacity="0.2"/>
        <path id="Path_240" data-name="Path 240" d="M364.23,288.24c-2,6.94-2.69,9.92-7.05,12.75-6.55,4.24-14.64.27-14.76-7.13-.11-6.66,3.18-16.89,10.69-18.16a9.85,9.85,0,0,1,11.12,12.54Z" transform="translate(-303.45 -262.07)" fill="#ffb573"/>
        <path id="Path_241" data-name="Path 241" d="M358.9,281.77c1.22,6.93,1.69,9.61,4.14,11.4s4.73-6.43,2.92-9.59S358.9,281.77,358.9,281.77Z" transform="translate(-303.45 -262.07)" fill="#263238"/>
        <path id="Path_242" data-name="Path 242" d="M347.38,275.27c-1.47,1.74,1.55,5.38,4.48,6.57a5,5,0,0,1-.39-1.2,19.67,19.67,0,0,0,7,3,2.75,2.75,0,0,1-.55-1.23c0-.34,7.22,4.44,8.27,1s-2.53-7.94-8-9.38C353.53,272.86,349.19,273.12,347.38,275.27Z" transform="translate(-303.45 -262.07)" fill="#263238"/>
        <path id="Path_243" data-name="Path 243" d="M352.59,287.62c-.12.57-.53,1-.91.88s-.57-.61-.44-1.19.53-1,.91-.88S352.72,287,352.59,287.62Z" transform="translate(-303.45 -262.07)" fill="#263238"/>
        <path id="Path_244" data-name="Path 244" d="M346.12,286.18c-.13.57-.54,1-.91.88s-.58-.61-.45-1.19.53-1,.91-.88S346.24,285.6,346.12,286.18Z" transform="translate(-303.45 -262.07)" fill="#263238"/>
        <path id="Path_245" data-name="Path 245" d="M345.83,285.06l-1.29-.71S345,285.58,345.83,285.06Z" transform="translate(-303.45 -262.07)" fill="#263238"/>
        <path id="Path_247" data-name="Path 247" d="M1.276,1.876a9.1,9.1,0,0,1-1.1-.154A.231.231,0,0,1,0,1.452a.218.218,0,0,1,.27-.167A5.985,5.985,0,0,0,5.527.065a.231.231,0,0,1,.321,0,.231.231,0,0,1,0,.308,6.255,6.255,0,0,1-4.572,1.5Z" transform="matrix(0.921, 0.391, -0.391, 0.921, 42.117, 29.811)" fill="#263238"/>
        <path id="Path_248" data-name="Path 248" d="M364.69,295.17a5.27,5.27,0,0,1-3.36,2.21c-1.82.34-2.57-1.33-1.92-3,.58-1.47,2.22-3.41,4-3a2.37,2.37,0,0,1,1.28,3.79Z" transform="translate(-303.45 -262.07)" fill="#ffb573"/>
        <path id="Path_249" data-name="Path 249" d="M355.77,286.36a.33.33,0,0,1-.29-.28,4.1,4.1,0,0,0-2.16-2.46.35.35,0,1,1,.29-.63,4.74,4.74,0,0,1,2.54,3,.35.35,0,0,1-.27.4Z" transform="translate(-303.45 -262.07)" fill="#263238"/>
        <path id="Path_250" data-name="Path 250" d="M344.84,281.59a.36.36,0,0,1-.31-.16.35.35,0,0,1,.1-.48,3.43,3.43,0,0,1,3.12-.4.343.343,0,1,1-.27.63,2.78,2.78,0,0,0-2.47.35A.35.35,0,0,1,344.84,281.59Z" transform="translate(-303.45 -262.07)" fill="#263238"/>
        <path id="Path_251" data-name="Path 251" d="M352.3,286.5l-1.28-.71S351.48,287,352.3,286.5Z" transform="translate(-303.45 -262.07)" fill="#263238"/>
        <path id="Path_252" data-name="Path 252" d="M366.08,354.35l.75,2.64c.11.21-.14.42-.48.42H335.93c-.27,0-.49-.14-.5-.3l-.27-2.65c0-.18.21-.34.5-.34H365.6a.53.53,0,0,1,.48.23Z" transform="translate(-303.45 -262.07)" fill="#002e5b"/>
        <path id="Path_253" data-name="Path 253" d="M366.08,354.35l.75,2.64c.11.21-.14.42-.48.42H335.93c-.27,0-.49-.14-.5-.3l-.27-2.65c0-.18.21-.34.5-.34H365.6a.53.53,0,0,1,.48.23Z" transform="translate(-303.45 -262.07)" opacity="0.2"/>
        <path id="Path_254" data-name="Path 254" d="M362,357.69h.8c.16,0,.28-.08.27-.18l-.38-3.44c0-.1-.15-.18-.31-.18h-.8c-.16,0-.28.08-.27.18l.38,3.44C361.66,357.61,361.8,357.69,362,357.69Z" transform="translate(-303.45 -262.07)" fill="#002e5b"/>
        <path id="Path_255" data-name="Path 255" d="M362,357.69h.8c.16,0,.28-.08.27-.18l-.38-3.44c0-.1-.15-.18-.31-.18h-.8c-.16,0-.28.08-.27.18l.38,3.44C361.66,357.61,361.8,357.69,362,357.69Z" transform="translate(-303.45 -262.07)" opacity="0.4"/>
        <path id="Path_256" data-name="Path 256" d="M338.18,357.69h.8c.16,0,.29-.08.28-.18l-.38-3.44c0-.1-.15-.18-.31-.18h-.8c-.16,0-.28.08-.27.18l.37,3.44C337.88,357.61,338,357.69,338.18,357.69Z" transform="translate(-303.45 -262.07)" fill="#002e5b"/>
        <path id="Path_257" data-name="Path 257" d="M338.18,357.69h.8c.16,0,.29-.08.28-.18l-.38-3.44c0-.1-.15-.18-.31-.18h-.8c-.16,0-.28.08-.27.18l.37,3.44C337.88,357.61,338,357.69,338.18,357.69Z" transform="translate(-303.45 -262.07)" opacity="0.4"/>
        <path id="Path_258" data-name="Path 258" d="M350,357.69h.8c.16,0,.28-.08.27-.18l-.37-3.44c0-.1-.15-.18-.31-.18h-.8c-.16,0-.29.08-.28.18l.38,3.44A.327.327,0,0,0,350,357.69Z" transform="translate(-303.45 -262.07)" fill="#002e5b"/>
        <path id="Path_259" data-name="Path 259" d="M350,357.69h.8c.16,0,.28-.08.27-.18l-.37-3.44c0-.1-.15-.18-.31-.18h-.8c-.16,0-.29.08-.28.18l.38,3.44A.327.327,0,0,0,350,357.69Z" transform="translate(-303.45 -262.07)" opacity="0.4"/>
        <path id="Path_260" data-name="Path 260" d="M347.87,362l-7.17-3.21,2,7.11s4.56,1,6.54-1.25Z" transform="translate(-303.45 -262.07)" fill="#ffb573"/>
        <path id="Path_261" data-name="Path 261" d="M374.32,320.71c.33,2.5.59,5,.89,7.5l.76,7.51c.27,2.5.46,5,.68,7.51L377,347l.08.94a4.857,4.857,0,0,0,.05.76,8.45,8.45,0,0,1,0,.87,7.889,7.889,0,0,1-1,3.05,12.63,12.63,0,0,1-3.38,3.7,26.571,26.571,0,0,1-3.62,2.29,52,52,0,0,1-7.35,3.09,94.529,94.529,0,0,1-15,3.7l-.82-3.59c2.33-.77,4.71-1.56,7-2.44s4.61-1.75,6.82-2.76a53,53,0,0,0,6.32-3.29,21.532,21.532,0,0,0,2.65-1.92,6.42,6.42,0,0,0,1.59-1.91,1.259,1.259,0,0,0,.15-.52l-.17-1.19-.53-3.74c-.35-2.49-.74-5-1-7.48l-.95-7.49c-.27-2.51-.59-5-.82-7.51Z" transform="translate(-303.45 -262.07)" fill="#ffb573"/>
        <path id="Path_262" data-name="Path 262" d="M370.87,311.94c3,.9,6.52,11.1,6.52,11.1L367,333.71s-5.32-11-4.07-14.79C364.25,314.93,367.49,310.92,370.87,311.94Z" transform="translate(-303.45 -262.07)" fill="#263238"/>
        <path id="Path_263" data-name="Path 263" d="M334.76,360.25l2.03,5.86,5.95-.23-2.05-7.11Z" transform="translate(-303.45 -262.07)" fill="#ffb573"/>
      </g>
      <path id="Path_264" data-name="Path 264" d="M346.49,220.34H215.19a4.34,4.34,0,0,1-4.34-4.34h0a4.33,4.33,0,0,1,4.34-4.33h131.3a4.33,4.33,0,0,1,4.33,4.33h0a4.33,4.33,0,0,1-4.33,4.34Z" transform="translate(-78.33 -82.5)" fill="#fff"/>
      <path id="Path_265" data-name="Path 265" d="M316,238.57H215.19a4.33,4.33,0,0,1-4.34-4.33h0a4.34,4.34,0,0,1,4.34-4.34H316a4.34,4.34,0,0,1,4.34,4.34h0a4.33,4.33,0,0,1-4.34,4.33Z" transform="translate(-78.33 -82.5)" fill="#fff"/>
      <path id="Path_266" data-name="Path 266" d="M234.72,304.66h50.09a4.34,4.34,0,0,0,4.34-4.34h0a4.33,4.33,0,0,0-4.34-4.33H234.72a4.33,4.33,0,0,0-4.33,4.33h0a4.33,4.33,0,0,0,4.33,4.34Z" transform="translate(-78.33 -82.5)" fill="#fff"/>
      <path id="Path_267" data-name="Path 267" d="M179.06,304.66h34.56a4.33,4.33,0,0,0,4.33-4.34h0a4.33,4.33,0,0,0-4.33-4.33H179.06a4.33,4.33,0,0,0-4.33,4.33h0a4.33,4.33,0,0,0,4.33,4.34Z" transform="translate(-78.33 -82.5)" fill="#fff"/>
      <path id="Path_268" data-name="Path 268" d="M153.51,322.89h131.3a4.33,4.33,0,0,0,4.34-4.33h0a4.34,4.34,0,0,0-4.34-4.34H153.51a4.33,4.33,0,0,0-4.33,4.34h0a4.33,4.33,0,0,0,4.33,4.33Z" transform="translate(-78.33 -82.5)" fill="#fff"/>
      <path id="Path_269" data-name="Path 269" d="M99.83,95a4.17,4.17,0,1,1-4.16-4.17A4.17,4.17,0,0,1,99.83,95Z" transform="translate(-78.33 -82.5)" fill="#05c5db"/>
      <circle id="Ellipse_26" data-name="Ellipse 26" cx="4.17" cy="4.17" r="4.17" transform="translate(27.34 8.33)" fill="#05c5db"/>
      <circle id="Ellipse_27" data-name="Ellipse 27" cx="4.17" cy="4.17" r="4.17" transform="translate(41.51 8.33)" fill="#05c5db"/>
    </g>
  </g>
</svg>
