<svg xmlns="http://www.w3.org/2000/svg" xmlns:xlink="http://www.w3.org/1999/xlink" viewBox="0 0 714.35 1351.12"><defs><style>.cls-1{fill:#ffa9a9;}.cls-12,.cls-2,.cls-7{fill:#161e3a;}.cls-3{fill:#5faf85;}.cls-4{fill:#cc7676;}.cls-5{fill:url(#linear-gradient);}.cls-6{fill:url(#linear-gradient-2);}.cls-7{opacity:0.4;}.cls-8{fill:#2d2f4f;}.cls-9{fill:#ffbdbd;}.cls-10{fill:#eaa2a2;}.cls-11{fill:url(#linear-gradient-3);}.cls-12{opacity:0.2;}.cls-13{fill:url(#linear-gradient-4);}.cls-14{fill:url(#linear-gradient-5);}.cls-15{fill:#121b35;}.cls-16{fill:url(#linear-gradient-6);}.cls-17{fill:url(#linear-gradient-7);}.cls-18{fill:url(#linear-gradient-8);}.cls-19{fill:url(#linear-gradient-9);}.cls-20{fill:url(#linear-gradient-10);}.cls-21{fill:#444547;}.cls-22{fill:url(#linear-gradient-11);}.cls-23{fill:#666668;}.cls-24{fill:#57a078;}.cls-25{fill:#7ec4a1;}</style><linearGradient id="linear-gradient" x1="381.97" y1="129.31" x2="455.16" y2="129.31" gradientTransform="matrix(-1, 0, 0, 1, 734.63, 0)" gradientUnits="userSpaceOnUse"><stop offset="0" stop-color="#3e6f7e"/><stop offset="1" stop-color="#98dbf8"/></linearGradient><linearGradient id="linear-gradient-2" x1="393.49" y1="130.41" x2="454.99" y2="130.41" gradientTransform="matrix(-1, 0, 0, 1, 734.63, 0)" gradientUnits="userSpaceOnUse"><stop offset="0" stop-color="#95a7d8"/><stop offset="1" stop-color="#dee4f3"/></linearGradient><linearGradient id="linear-gradient-3" x1="233.33" y1="483.52" x2="678.82" y2="483.52" xlink:href="#linear-gradient-2"/><linearGradient id="linear-gradient-4" x1="204.99" y1="325.07" x2="346.7" y2="325.07" xlink:href="#linear-gradient-2"/><linearGradient id="linear-gradient-5" x1="338.86" y1="190.76" x2="425.09" y2="190.76" xlink:href="#linear-gradient-2"/><linearGradient id="linear-gradient-6" x1="499.18" y1="94.48" x2="442.98" y2="-2.86" xlink:href="#linear-gradient-2"/><linearGradient id="linear-gradient-7" x1="420.03" y1="52.68" x2="543.98" y2="52.68" xlink:href="#linear-gradient-2"/><linearGradient id="linear-gradient-8" x1="488.52" y1="137.72" x2="561.71" y2="137.72" xlink:href="#linear-gradient"/><linearGradient id="linear-gradient-9" x1="500.03" y1="138.72" x2="561.54" y2="138.72" xlink:href="#linear-gradient-2"/><linearGradient id="linear-gradient-10" x1="20.27" y1="632.28" x2="396.97" y2="632.28" gradientTransform="matrix(-1, 0, 0, 1, 734.63, 0)" gradientUnits="userSpaceOnUse"><stop offset="0" stop-color="#eeefef"/><stop offset="0.99" stop-color="#b4b5b5"/></linearGradient><linearGradient id="linear-gradient-11" x1="615.4" y1="719.61" x2="369.23" y2="704.23" xlink:href="#linear-gradient-10"/></defs><g id="Layer_2" data-name="Layer 2"><g id="Layer_2-2" data-name="Layer 2"><path class="cls-1" d="M477.56,1178.07s-8.72,27.73-35.56,21-19.52-32.11-19.52-32.11Z"/><path class="cls-2" d="M446.82,1223.83s63.54,57.46,83.82,57.46,26.31-28.17-12.2-57.46-40.88-40.31-40.88-40.31-22.41,17.78-41.56,9.32-24.23-14.47-24.23-14.47l2.26,35.89Z"/><path class="cls-3" d="M243.88,707.76s89.53,108.48,128,141.07,65.93,324.09,65.93,324.09l24.28,3.15h.08l17.68,2.3s.09-.25.3-.77c3.66-10.39,45.06-126.79,86.46-213.51,43.4-90.85,59.67-154.62,33.9-188.52-7.32-9.67-29-23.64-56.3-38.76-68.53-37.91-172.33-82.72-172.33-82.72Z"/><path class="cls-3" d="M116.06,820.16c44.21,37.91,235.15,103.89,243.55,123.52s2.81,125,11.24,196.57,19.64,113.68,19.64,113.68,5.62,12.65,25.3,12.65a37.14,37.14,0,0,0,5.45-.42,42.5,42.5,0,0,0,14.87-5.5,55.78,55.78,0,0,0,13.37-10.9s4.22-148.82,26.66-219,53.33-143.2,0-189.54c-12.82-11.12-29.64-23.94-47.75-37C371.23,763,301,719.52,301,719.52l-185-31.27S71.81,782.25,116.06,820.16Z"/><path class="cls-4" d="M408.67,281.65s-4.19-42-23.27-66.62-39.81-26.28-50.92-41.37S287.89,77.32,298.87,69s26.55,0,26.55,0,27.37,6.15,40.1,39.49,12.72,41,22.26,51.87S488,277.85,512.63,342.26,517.8,435,501.3,436.83,410.48,340.31,408.67,281.65Z"/><path class="cls-5" d="M279.47,129.31c0,28.34,16.39,51.32,36.59,51.32s36.59-23,36.59-51.32S336.27,78,316.06,78,279.47,101,279.47,129.31Z"/><path class="cls-6" d="M279.64,130.41c0,27.74,13.77,50.22,30.75,50.22s30.75-22.48,30.75-50.22-13.77-50.22-30.75-50.22S279.64,102.67,279.64,130.41Z"/><path class="cls-7" d="M281.27,130.41c0,19.91,9.88,36.05,22.07,36.05s22.08-16.14,22.08-36.05-9.89-36-22.08-36S281.27,110.5,281.27,130.41Z"/><path class="cls-8" d="M320.39,24.74s89.33,21.81,54.1,124.61c-9.38,27.34,22.95,43.3,8.48,71.48s-108.81,34.89-109,34S254.92,71.63,254.92,71.63Z"/><path class="cls-9" d="M324.29,54.48S353.65,65,351.57,142.65c-1.36,50.8-19.8,69.9-29.64,77.68S297.05,227,297.05,227l5.54,31.69s4.16,22.24-34.89,31.14-66.84-32.93-66.84-32.93,6.88-32.29.16-63.22S187.26,84.56,218.68,67,324.29,54.48,324.29,54.48Z"/><path class="cls-10" d="M298.12,226.29s-24.8,3.14-37.65-8.28-16.71-14.44-16.71-14.44a124.31,124.31,0,0,0,21.12,30.37c14.31,15.24,10.58,53.78,10.58,53.78S304.83,282,302.6,263.5,298.12,226.29,298.12,226.29Z"/><path class="cls-8" d="M341.92,75s-1,27.27-44.4,43.41c-42.6,15.83-60,21.63-60,21.63S231.89,119.4,221,129c-16.09,14.17,21.53,58,11.08,84.69s-13.67,46.23-71.35,71.47-67.68,95.06-67.68,95.06S8.35,392.05,1.87,345.11s1.21-89.26,66.6-106.57,83.95-42.72,75.53-85.71C133.65,100,145.39,32.37,221.67,6.73S343,34.15,341.92,75Z"/><path class="cls-11" d="M299.94,241.39s93.34,21.46,102.9,32S501.3,436.83,501.3,436.83s-19.12,6.7-62.14-5.73-48.76-23-48.76-23-3.82,59.28-5.73,115.68-16.25,155.82-16.25,155.82-47.79,57.36-140.53,44-111.84-35.37-111.84-35.37l-3.83-64.48S61.55,608.9,57.73,563,54.87,366.08,69.21,348.88s134.63-97.77,134.63-97.77,6.9,42.58,54.69,36.61S299.94,241.39,299.94,241.39Z"/><path class="cls-12" d="M126.41,395.08S139.46,413.2,138,469s-3.62,77.37,10.15,83.62,107.27,67.86,107.27,67.86S161.92,553.81,154,535,155.41,403.05,126.41,395.08Z"/><path class="cls-12" d="M112.22,623.77S207.78,668.09,221,677.23c0,0-57.87-16.24-76.14-16.24s-32.62,23.43-32.62,23.43Z"/><path class="cls-13" d="M441.17,214.29s-24.93-2-39.09,6.74l-14.15,8.76s3.37,65.38,37.74,130.09,79.06,76.17,79.1,76.17,52.32-22.26,5.15-116.62S441.17,214.29,441.17,214.29Z"/><path class="cls-14" d="M365.19,155.38l15.74,37.06s5.28,13.69-7.87,18.64a303.7,303.7,0,0,1-29.72,9s-2.22-12.2-11.73-10.27-22.07,10.27-22.07,10.27,2.8,14.61,15.52,14.16S382,217.51,382,217.51s19.47-1.71,12.15-19.29-19.62-50.94-19.62-50.94Z"/><path class="cls-1" d="M446.39,1252.91s5.82,32.83-25.22,31.2S390.5,1254,390.5,1254,425.05,1269.9,446.39,1252.91Z"/><path class="cls-15" d="M446.06,1266.58s74.77,42,72.32,54.29S507,1361.72,463.65,1347s-100.48-35.13-98-56.37S390.5,1254,390.5,1254,417,1294,446.06,1266.58Z"/><path class="cls-16" d="M314.6,13a7.65,7.65,0,0,1-6.18,3.13c-4.28.11-33.3-8.65-52.89,13.73S229.6,98.59,229.6,98.59l-8-5.09S228.9,32,250.5,20.24,302.39,8.13,314.6,13Z"/><path class="cls-17" d="M314.6,13S282.23,4.56,259,19.49c-27,17.32-33.82,75.9-33.82,75.9l-34.5,2S192,42.71,218.87,24.32,301,4.46,314.6,13Z"/><path class="cls-18" d="M172.92,137.72c0,25.86,16.39,46.82,36.6,46.82s36.59-21,36.59-46.82S229.72,90.9,209.52,90.9,172.92,111.86,172.92,137.72Z"/><path class="cls-19" d="M173.09,138.72c0,25.31,13.77,45.82,30.75,45.82s30.75-20.51,30.75-45.82S220.83,92.9,203.84,92.9,173.09,113.41,173.09,138.72Z"/><path class="cls-7" d="M174.72,138.72c0,18.17,9.89,32.89,22.08,32.89s22.07-14.72,22.07-32.89S209,105.83,196.8,105.83,174.72,120.55,174.72,138.72Z"/><polygon class="cls-20" points="714.35 402.03 406.58 583.46 337.65 862.53 631.68 683.61 714.35 402.03"/><polygon class="cls-21" points="714.35 402.03 699.55 395.08 389.98 575.37 328.89 833.83 128.77 721.37 128.77 739.66 337.65 862.53 406.58 583.46 714.35 402.03"/><polygon class="cls-22" points="389.98 575.37 128.77 721.37 328.89 833.83 389.98 575.37"/><polygon class="cls-23" points="371.98 651.57 249.59 721.8 344.1 769.48 371.98 651.57"/><path class="cls-1" d="M247.34,626.35s-11,9.87-15.89,21.38l-8.22,19.18s3.29,14.25,24.11,19.73,31.24,7.66,46,28.49,51-5.48,27.95-38.91-28.5-29.59-28.5-29.59,15.9,11.1,24.12,7.47l8.21-3.64S296.66,626.67,283,623.77,247.34,626.35,247.34,626.35Z"/><path class="cls-24" d="M116.06,820.16c44.21,37.91,235.15,103.89,243.55,123.52s2.81,125,11.24,196.57,19.64,113.68,19.64,113.68,5.62,12.65,25.3,12.65a37.14,37.14,0,0,0,5.45-.42c-2.43-9.16-15.59-30-23.51-55.85C389,1182,394.45,1026.06,390,994.41s31.6-61,31.6-61-26,0-83.91-22.92-170-89.4-202.7-116.66-6.22-96.94-6.22-96.94l-12.69-8.61S71.81,782.25,116.06,820.16Z"/><path class="cls-25" d="M428.39,1127.9c-5.19,60.95,0,132.38,0,132.38a19.4,19.4,0,0,0,7.72.38,55.78,55.78,0,0,0,13.37-10.9s4.22-148.82,26.66-219,53.33-143.2,0-189.54c-12.82-11.12-29.64-23.94-47.75-37-5.4,2.51-8.94,5.5-9.75,9,0,0,65.85,44.81,58.91,107.68S433.55,1067,428.39,1127.9Z"/><path class="cls-25" d="M462.13,1176.07h.08l18,1.53c3.66-10.39,45.06-126.79,86.46-213.51,43.4-90.85,59.67-154.62,33.9-188.52-7.32-9.67-29-23.64-56.3-38.76L526,747.93s68.62,34.37,48.47,109S462.13,1176.07,462.13,1176.07Z"/><path class="cls-12" d="M367.5,330.57s15.08,71,22.9,77.58,30.86,22.52,62.6,26.5,51.77,1.4,51.77,1.4-82.61-20.43-100.62-41S367.5,330.57,367.5,330.57Z"/></g></g></svg>