<svg xmlns="http://www.w3.org/2000/svg" xmlns:xlink="http://www.w3.org/1999/xlink" viewBox="0 0 795.12 506.66"><defs><style>.cls-1{mask:url(#mask);filter:url(#luminosity-noclip-6);}.cls-10,.cls-2,.cls-4,.cls-6,.cls-8{mix-blend-mode:multiply;}.cls-2{fill:url(#linear-gradient);}.cls-3{mask:url(#mask-2);filter:url(#luminosity-noclip-7);}.cls-4{fill:url(#linear-gradient-2);}.cls-5{mask:url(#mask-3);filter:url(#luminosity-noclip-8);}.cls-6{fill:url(#linear-gradient-3);}.cls-7{mask:url(#mask-4);filter:url(#luminosity-noclip-9);}.cls-8{fill:url(#linear-gradient-4);}.cls-9{mask:url(#mask-5);filter:url(#luminosity-noclip-10);}.cls-10{fill:url(#linear-gradient-5);}.cls-11{fill:url(#linear-gradient-6);}.cls-12{fill:url(#linear-gradient-7);}.cls-13{fill:url(#linear-gradient-8);}.cls-14{fill:url(#linear-gradient-9);}.cls-15{fill:url(#linear-gradient-10);}.cls-16{fill:url(#linear-gradient-11);}.cls-17{fill:url(#linear-gradient-12);}.cls-18{fill:url(#linear-gradient-13);}.cls-19{fill:#fff;}.cls-20{fill:url(#linear-gradient-14);}.cls-21{fill:url(#linear-gradient-15);}.cls-22{fill:url(#linear-gradient-16);}.cls-23{fill:url(#linear-gradient-17);}.cls-24{fill:url(#linear-gradient-18);}.cls-25{fill:url(#linear-gradient-19);}.cls-26{fill:url(#linear-gradient-20);}.cls-27{fill:url(#linear-gradient-21);}.cls-28{fill:url(#linear-gradient-22);}.cls-29{fill:url(#linear-gradient-23);}.cls-30{fill:url(#linear-gradient-24);}.cls-31{fill:url(#linear-gradient-25);}.cls-32{fill:url(#linear-gradient-26);}.cls-33{fill:url(#linear-gradient-27);}.cls-34{fill:url(#linear-gradient-28);}.cls-35{fill:url(#linear-gradient-29);}.cls-36{fill:url(#linear-gradient-30);}.cls-37{fill:#002760;}.cls-38{fill:#e2e2e2;}.cls-39{mask:url(#mask-6);}.cls-40{opacity:0.51;fill:url(#linear-gradient-56);}.cls-41{fill:url(#linear-gradient-57);}.cls-42{mask:url(#mask-7);}.cls-43{fill:url(#linear-gradient-58);}.cls-44{fill:url(#linear-gradient-59);}.cls-45{fill:url(#linear-gradient-60);}.cls-46{fill:url(#linear-gradient-61);}.cls-47{fill:url(#linear-gradient-62);}.cls-48{fill:url(#linear-gradient-63);}.cls-49{mask:url(#mask-8);}.cls-50{fill:url(#linear-gradient-64);}.cls-51{fill:url(#linear-gradient-65);}.cls-52{fill:#1e1e1e;}.cls-53{fill:url(#linear-gradient-66);}.cls-54{fill:url(#linear-gradient-67);}.cls-55{mask:url(#mask-9);}.cls-56{opacity:0.31;fill:url(#linear-gradient-68);}.cls-57{fill:url(#linear-gradient-69);}.cls-58{mask:url(#mask-10);}.cls-59{fill:url(#linear-gradient-70);}.cls-60{fill:#33c173;}.cls-61{fill:url(#linear-gradient-71);}.cls-62{fill:#65d1a2;}.cls-63{fill:url(#linear-gradient-72);}.cls-64{fill:url(#linear-gradient-73);}.cls-65{fill:url(#linear-gradient-74);}.cls-66{fill:url(#linear-gradient-75);}.cls-67{fill:url(#radial-gradient);}.cls-68{fill:url(#radial-gradient-2);}.cls-69{filter:url(#luminosity-noclip-5);}.cls-70{filter:url(#luminosity-noclip-4);}.cls-71{filter:url(#luminosity-noclip-3);}.cls-72{filter:url(#luminosity-noclip-2);}.cls-73{filter:url(#luminosity-noclip);}</style><filter id="luminosity-noclip" x="689.56" y="-8433.16" width="37.89" height="32766" filterUnits="userSpaceOnUse" color-interpolation-filters="sRGB"><feFlood flood-color="#fff" result="bg"/><feBlend in="SourceGraphic" in2="bg"/></filter><mask id="mask" x="689.56" y="-8433.16" width="37.89" height="32766" maskUnits="userSpaceOnUse"><g class="cls-73"/></mask><linearGradient id="linear-gradient" x1="564.08" y1="25.99" x2="749.7" y2="470.54" gradientUnits="userSpaceOnUse"><stop offset="0" stop-color="#fff"/><stop offset="1"/></linearGradient><filter id="luminosity-noclip-2" x="417.55" y="-8433.16" width="245.15" height="32766" filterUnits="userSpaceOnUse" color-interpolation-filters="sRGB"><feFlood flood-color="#fff" result="bg"/><feBlend in="SourceGraphic" in2="bg"/></filter><mask id="mask-2" x="417.55" y="-8433.16" width="245.15" height="32766" maskUnits="userSpaceOnUse"><g class="cls-72"/></mask><linearGradient id="linear-gradient-2" x1="1072.26" y1="394.25" x2="479.75" y2="217.88" xlink:href="#linear-gradient"/><filter id="luminosity-noclip-3" x="673.61" y="-8433.16" width="27.03" height="32766" filterUnits="userSpaceOnUse" color-interpolation-filters="sRGB"><feFlood flood-color="#fff" result="bg"/><feBlend in="SourceGraphic" in2="bg"/></filter><mask id="mask-3" x="673.61" y="-8433.16" width="27.03" height="32766" maskUnits="userSpaceOnUse"><g class="cls-71"/></mask><linearGradient id="linear-gradient-3" x1="586.59" y1="80.33" x2="695.14" y2="144.18" xlink:href="#linear-gradient"/><filter id="luminosity-noclip-4" x="660.11" y="-8433.16" width="15" height="32766" filterUnits="userSpaceOnUse" color-interpolation-filters="sRGB"><feFlood flood-color="#fff" result="bg"/><feBlend in="SourceGraphic" in2="bg"/></filter><mask id="mask-4" x="660.11" y="-8433.16" width="15" height="32766" maskUnits="userSpaceOnUse"><g class="cls-70"/></mask><linearGradient id="linear-gradient-4" x1="553.59" y1="52.91" x2="698.7" y2="253.27" xlink:href="#linear-gradient"/><filter id="luminosity-noclip-5" x="658.05" y="-8433.16" width="70.71" height="32766" filterUnits="userSpaceOnUse" color-interpolation-filters="sRGB"><feFlood flood-color="#fff" result="bg"/><feBlend in="SourceGraphic" in2="bg"/></filter><mask id="mask-5" x="658.05" y="-8433.16" width="70.71" height="32766" maskUnits="userSpaceOnUse"><g class="cls-69"/></mask><linearGradient id="linear-gradient-5" x1="657.31" y1="168.05" x2="708.93" y2="239.32" xlink:href="#linear-gradient"/><linearGradient id="linear-gradient-6" x1="140.72" y1="72.12" x2="326.67" y2="99.86" gradientUnits="userSpaceOnUse"><stop offset="0" stop-color="#fff6d2"/><stop offset="0.47" stop-color="#fffc83"/><stop offset="1" stop-color="#f9b61e"/></linearGradient><linearGradient id="linear-gradient-7" x1="134.26" y1="115.46" x2="320.2" y2="143.2" xlink:href="#linear-gradient-6"/><linearGradient id="linear-gradient-8" x1="139.22" y1="82.15" x2="325.17" y2="109.9" xlink:href="#linear-gradient-6"/><linearGradient id="linear-gradient-9" x1="136.5" y1="100.39" x2="322.45" y2="128.13" xlink:href="#linear-gradient-6"/><linearGradient id="linear-gradient-10" x1="135.34" y1="108.16" x2="321.29" y2="135.91" xlink:href="#linear-gradient-6"/><linearGradient id="linear-gradient-11" x1="138.29" y1="88.4" x2="324.24" y2="116.14" xlink:href="#linear-gradient-6"/><linearGradient id="linear-gradient-12" x1="407.53" y1="32.82" x2="351.38" y2="143.79" xlink:href="#linear-gradient-6"/><linearGradient id="linear-gradient-13" x1="278.57" y1="34.37" x2="382.28" y2="142.7" gradientTransform="translate(424.23 -255.41) rotate(80.7)" xlink:href="#linear-gradient-6"/><linearGradient id="linear-gradient-14" x1="-298.37" y1="59.35" x2="89.61" y2="117.24" xlink:href="#linear-gradient-6"/><linearGradient id="linear-gradient-15" x1="-311.86" y1="149.77" x2="76.12" y2="207.66" xlink:href="#linear-gradient-6"/><linearGradient id="linear-gradient-16" x1="-301.49" y1="80.28" x2="86.49" y2="138.17" xlink:href="#linear-gradient-6"/><linearGradient id="linear-gradient-17" x1="-307.17" y1="118.33" x2="80.81" y2="176.22" xlink:href="#linear-gradient-6"/><linearGradient id="linear-gradient-18" x1="-309.59" y1="134.56" x2="78.39" y2="192.44" xlink:href="#linear-gradient-6"/><linearGradient id="linear-gradient-19" x1="-303.44" y1="93.31" x2="84.55" y2="151.2" xlink:href="#linear-gradient-6"/><linearGradient id="linear-gradient-20" x1="258.34" y1="-22.66" x2="141.19" y2="208.89" gradientTransform="translate(163.61 -68.28) rotate(45)" xlink:href="#linear-gradient-6"/><linearGradient id="linear-gradient-21" x1="-10.74" y1="-19.42" x2="205.65" y2="206.62" gradientTransform="translate(163.61 -68.28) rotate(45)" xlink:href="#linear-gradient-6"/><linearGradient id="linear-gradient-22" x1="2.43" y1="222.8" x2="259.04" y2="261.09" xlink:href="#linear-gradient-6"/><linearGradient id="linear-gradient-23" x1="-6.49" y1="282.6" x2="250.12" y2="320.89" xlink:href="#linear-gradient-6"/><linearGradient id="linear-gradient-24" x1="0.36" y1="236.65" x2="256.97" y2="274.93" xlink:href="#linear-gradient-6"/><linearGradient id="linear-gradient-25" x1="-3.39" y1="261.81" x2="253.22" y2="300.09" xlink:href="#linear-gradient-6"/><linearGradient id="linear-gradient-26" x1="-4.99" y1="272.54" x2="251.62" y2="310.82" xlink:href="#linear-gradient-6"/><linearGradient id="linear-gradient-27" x1="-0.92" y1="245.26" x2="255.69" y2="283.54" xlink:href="#linear-gradient-6"/><linearGradient id="linear-gradient-28" x1="370.63" y1="168.56" x2="293.15" y2="321.7" xlink:href="#linear-gradient-6"/><linearGradient id="linear-gradient-29" x1="192.67" y1="170.7" x2="335.78" y2="320.2" gradientTransform="translate(296.51 -132.66) rotate(45)" xlink:href="#linear-gradient-6"/><linearGradient id="linear-gradient-30" x1="643.4" y1="1023.04" x2="546.24" y2="-67.26" gradientUnits="userSpaceOnUse"><stop offset="0" stop-color="#a01818"/><stop offset="0.75" stop-color="#ff4e10"/><stop offset="1" stop-color="#ffe655"/></linearGradient><filter id="luminosity-noclip-6" x="689.56" y="279.63" width="37.89" height="213.42" filterUnits="userSpaceOnUse" color-interpolation-filters="sRGB"><feFlood flood-color="#fff" result="bg"/><feBlend in="SourceGraphic" in2="bg"/></filter><mask id="mask-6" x="689.56" y="279.63" width="37.89" height="213.42" maskUnits="userSpaceOnUse"><g class="cls-1"><path class="cls-2" d="M710.53,380.13c19.22,21.62,16.82,112.92,16.82,112.92h-6.49l-31.3-213.42,19.26,1.43C718.18,308.25,710.53,380.13,710.53,380.13Z"/></g></mask><linearGradient id="linear-gradient-56" x1="564.08" y1="25.99" x2="749.7" y2="470.54" gradientUnits="userSpaceOnUse"><stop offset="0"/><stop offset="1"/></linearGradient><linearGradient id="linear-gradient-57" x1="441.81" y1="116.59" x2="622.14" y2="255.3" gradientUnits="userSpaceOnUse"><stop offset="0" stop-color="#33e5dc"/><stop offset="0.23" stop-color="#30bed0"/><stop offset="0.76" stop-color="#2a6ab5"/><stop offset="1" stop-color="#2749aa"/></linearGradient><filter id="luminosity-noclip-7" x="417.55" y="217.9" width="245.15" height="35.91" filterUnits="userSpaceOnUse" color-interpolation-filters="sRGB"><feFlood flood-color="#fff" result="bg"/><feBlend in="SourceGraphic" in2="bg"/></filter><mask id="mask-7" x="417.55" y="217.9" width="245.15" height="35.91" maskUnits="userSpaceOnUse"><g class="cls-3"><path class="cls-4" d="M662.7,217.9a75.2,75.2,0,0,1-64,35.91H417.55V217.9Z"/></g></mask><linearGradient id="linear-gradient-58" x1="1072.26" y1="394.25" x2="479.75" y2="217.88" xlink:href="#linear-gradient-56"/><linearGradient id="linear-gradient-59" x1="530.01" y1="179.5" x2="375.44" y2="30.87" gradientUnits="userSpaceOnUse"><stop offset="0" stop-color="#5d6170"/><stop offset="1" stop-color="#fff"/></linearGradient><linearGradient id="linear-gradient-60" x1="509.79" y1="353.29" x2="392.87" y2="218.53" xlink:href="#linear-gradient-59"/><linearGradient id="linear-gradient-61" x1="563.7" y1="288.04" x2="536.94" y2="-12.18" xlink:href="#linear-gradient-30"/><linearGradient id="linear-gradient-62" x1="586.68" y1="248.02" x2="603.03" y2="272.79" gradientUnits="userSpaceOnUse"><stop offset="0" stop-color="#fff7bd"/><stop offset="0.49" stop-color="#db6565"/><stop offset="1" stop-color="#d63838"/></linearGradient><linearGradient id="linear-gradient-63" x1="674.67" y1="165.09" x2="715.45" y2="120.33" xlink:href="#linear-gradient-62"/><filter id="luminosity-noclip-8" x="673.61" y="118.91" width="27.03" height="43.2" filterUnits="userSpaceOnUse" color-interpolation-filters="sRGB"><feFlood flood-color="#fff" result="bg"/><feBlend in="SourceGraphic" in2="bg"/></filter><mask id="mask-8" x="673.61" y="118.91" width="27.03" height="43.2" maskUnits="userSpaceOnUse"><g class="cls-5"><path class="cls-6" d="M673.61,146.34l17.48,15.77,9.55-3.08-13.93-40.12s-4.77,3-4.81,3.24S673.61,146.34,673.61,146.34Z"/></g></mask><linearGradient id="linear-gradient-64" x1="586.59" y1="80.33" x2="695.14" y2="144.18" xlink:href="#linear-gradient-56"/><linearGradient id="linear-gradient-65" x1="658.59" y1="125.62" x2="719.85" y2="119.18" xlink:href="#linear-gradient-62"/><linearGradient id="linear-gradient-66" x1="691.53" y1="113.85" x2="671.94" y2="119.57" xlink:href="#linear-gradient-62"/><linearGradient id="linear-gradient-67" x1="718.41" y1="237.75" x2="654.81" y2="202.23" gradientUnits="userSpaceOnUse"><stop offset="0" stop-color="#b6c7d8"/><stop offset="1" stop-color="azure"/></linearGradient><filter id="luminosity-noclip-9" x="660.11" y="178.16" width="15" height="75.45" filterUnits="userSpaceOnUse" color-interpolation-filters="sRGB"><feFlood flood-color="#fff" result="bg"/><feBlend in="SourceGraphic" in2="bg"/></filter><mask id="mask-9" x="660.11" y="178.16" width="15" height="75.45" maskUnits="userSpaceOnUse"><g class="cls-7"><path class="cls-8" d="M674.11,178.16l-4,3s5,4,5,14-19.87,28.89-2.93,58.44l-12.07-12.44V220.49l9-17.33s2-13,0-18-2.3-6-2.3-6Z"/></g></mask><linearGradient id="linear-gradient-68" x1="553.59" y1="52.91" x2="698.7" y2="253.27" xlink:href="#linear-gradient-56"/><linearGradient id="linear-gradient-69" x1="689.06" y1="174.42" x2="686.75" y2="166.16" xlink:href="#linear-gradient-67"/><filter id="luminosity-noclip-10" x="658.05" y="190.39" width="70.71" height="55.02" filterUnits="userSpaceOnUse" color-interpolation-filters="sRGB"><feFlood flood-color="#fff" result="bg"/><feBlend in="SourceGraphic" in2="bg"/></filter><mask id="mask-10" x="658.05" y="190.39" width="70.71" height="55.02" maskUnits="userSpaceOnUse"><g class="cls-9"><path class="cls-10" d="M728.76,190.39a97.84,97.84,0,0,0-7.65,33.4l-27.73,19.37-35.33,2.25Z"/></g></mask><linearGradient id="linear-gradient-70" x1="658" y1="172.62" x2="707.07" y2="240.37" xlink:href="#linear-gradient-56"/><linearGradient id="linear-gradient-71" x1="613.81" y1="265.52" x2="601.59" y2="241.41" xlink:href="#linear-gradient-67"/><linearGradient id="linear-gradient-72" x1="283.19" y1="108.81" x2="229.68" y2="-47.08" xlink:href="#linear-gradient-57"/><linearGradient id="linear-gradient-73" x1="261.27" y1="116.33" x2="207.76" y2="-39.56" gradientTransform="translate(480.07 108.92) rotate(-180)" xlink:href="#linear-gradient-57"/><linearGradient id="linear-gradient-74" x1="341.6" y1="250.58" x2="290.08" y2="153.48" xlink:href="#linear-gradient-57"/><linearGradient id="linear-gradient-75" x1="330.2" y1="256.63" x2="278.67" y2="159.53" gradientTransform="translate(602.52 404.19) rotate(-180)" xlink:href="#linear-gradient-57"/><radialGradient id="radial-gradient" cx="125.97" cy="324.2" r="69.56" gradientUnits="userSpaceOnUse"><stop offset="0" stop-color="#f7ffae"/><stop offset="0.39" stop-color="#33e5dc"/><stop offset="0.53" stop-color="#30bed0"/><stop offset="0.85" stop-color="#2a6ab5"/><stop offset="1" stop-color="#2749aa"/></radialGradient><radialGradient id="radial-gradient-2" cx="125.97" cy="324.2" r="69.56" gradientTransform="translate(243.55 557.26) rotate(-180)" xlink:href="#radial-gradient"/></defs><g id="Layer_2" data-name="Layer 2"><g id="Layer_1-2" data-name="Layer 1"><path class="cls-11" d="M344.2,99.67H295.71a.82.82,0,0,1-.82-.81h0a.82.82,0,0,1,.82-.81H344.2a.82.82,0,0,1,.81.81h0A.81.81,0,0,1,344.2,99.67Z"/><path class="cls-12" d="M361.61,146.57H313.12a.81.81,0,0,1-.81-.81h0a.81.81,0,0,1,.81-.81h48.49a.82.82,0,0,1,.82.81h0A.82.82,0,0,1,361.61,146.57Z"/><path class="cls-13" d="M358.08,112H309.59a.82.82,0,0,1-.82-.81h0a.82.82,0,0,1,.82-.81h48.49a.81.81,0,0,1,.81.81h0A.81.81,0,0,1,358.08,112Z"/><path class="cls-14" d="M333,126.9H284.53a.81.81,0,0,1-.81-.81h0a.81.81,0,0,1,.81-.81H333a.81.81,0,0,1,.81.81h0A.81.81,0,0,1,333,126.9Z"/><rect class="cls-15" x="319.95" y="136.64" width="23.35" height="1.62" rx="0.55"/><rect class="cls-16" x="322.16" y="116.76" width="23.35" height="1.62" rx="0.55"/><circle class="cls-17" cx="362.43" cy="121.96" r="32"/><circle class="cls-18" cx="362.43" cy="121.96" r="27.83" transform="translate(183.5 459.92) rotate(-80.7)"/><path class="cls-19" d="M372.17,129.67c0-4.62-2.76-7.31-8.15-9.36-4-1.54-5.9-2.7-5.9-5.26,0-2.31,1.86-4.23,5.19-4.23a12.42,12.42,0,0,1,4.4.81,2.11,2.11,0,0,0,2.74-1.32,2.14,2.14,0,0,0-1.3-2.71,16.56,16.56,0,0,0-4.71-1V102a1.53,1.53,0,0,0-3.05,0v4.77c-5.43.75-8.66,4.49-8.66,9,0,3.72,2.63,6.8,8.21,8.79,4.17,1.53,5.77,3,5.77,5.7s-1.92,4.62-6,4.62a14.26,14.26,0,0,1-5.4-1.18,2.13,2.13,0,0,0-2.83,1.33l0,.12a2.14,2.14,0,0,0,1.24,2.66,19.16,19.16,0,0,0,6.9,1.24c.28,0,.56,0,.83,0v3.72a1.53,1.53,0,1,0,3.05,0v-4.1C369.4,137.43,372.17,134.08,372.17,129.67Z"/><path class="cls-20" d="M126.19,116.84H25a1.69,1.69,0,0,1-1.69-1.69h0a1.7,1.7,0,0,1,1.69-1.7H126.19a1.7,1.7,0,0,1,1.69,1.7h0A1.69,1.69,0,0,1,126.19,116.84Z"/><path class="cls-21" d="M162.54,214.7H61.36a1.7,1.7,0,0,1-1.69-1.7h0a1.69,1.69,0,0,1,1.69-1.69H162.54a1.69,1.69,0,0,1,1.69,1.69h0A1.7,1.7,0,0,1,162.54,214.7Z"/><path class="cls-22" d="M155.15,142.56H54a1.7,1.7,0,0,1-1.7-1.69h0a1.7,1.7,0,0,1,1.7-1.69H155.15a1.7,1.7,0,0,1,1.7,1.69h0A1.7,1.7,0,0,1,155.15,142.56Z"/><path class="cls-23" d="M102.87,173.65H1.69A1.69,1.69,0,0,1,0,172H0a1.69,1.69,0,0,1,1.69-1.69H102.87a1.7,1.7,0,0,1,1.7,1.69h0A1.7,1.7,0,0,1,102.87,173.65Z"/><rect class="cls-24" x="75.6" y="193.97" width="48.72" height="3.39" rx="1.16"/><rect class="cls-25" x="80.2" y="152.49" width="48.72" height="3.39" rx="1.16"/><circle class="cls-26" cx="164.23" cy="163.35" r="66.77" transform="translate(-67.4 163.97) rotate(-45)"/><circle class="cls-27" cx="164.23" cy="163.35" r="58.06" transform="translate(-67.4 163.97) rotate(-45)"/><path class="cls-19" d="M184.55,179.43c0-9.64-5.75-15.26-17-19.54-8.43-3.21-12.31-5.62-12.31-11,0-4.82,3.88-8.83,10.83-8.83a25.53,25.53,0,0,1,9.17,1.71A4.43,4.43,0,0,0,181,139a4.49,4.49,0,0,0-2.73-5.67,34.46,34.46,0,0,0-9.81-2v-9.73a3.19,3.19,0,1,0-6.37,0v9.94c-11.34,1.58-18.06,9.38-18.06,18.7,0,7.76,5.48,14.18,17.12,18.33,8.7,3.21,12.05,6.29,12.05,11.91,0,5.35-4,9.63-12.58,9.63a30.08,30.08,0,0,1-11.26-2.45,4.44,4.44,0,0,0-5.9,2.76l-.09.25a4.49,4.49,0,0,0,2.6,5.57,40,40,0,0,0,14.38,2.57c.6,0,1.17,0,1.74-.05v7.75a3.19,3.19,0,1,0,6.37,0V198C178.78,195.62,184.55,188.62,184.55,179.43Z"/><path class="cls-28" d="M283.23,260.82H216.31a1.12,1.12,0,0,1-1.12-1.12h0a1.13,1.13,0,0,1,1.12-1.12h66.92a1.12,1.12,0,0,1,1.12,1.12h0A1.12,1.12,0,0,1,283.23,260.82Z"/><path class="cls-29" d="M307.27,325.54H240.35a1.12,1.12,0,0,1-1.12-1.12h0a1.12,1.12,0,0,1,1.12-1.12h66.92a1.13,1.13,0,0,1,1.12,1.12h0A1.12,1.12,0,0,1,307.27,325.54Z"/><path class="cls-30" d="M302.39,277.83H235.47a1.12,1.12,0,0,1-1.12-1.12h0a1.12,1.12,0,0,1,1.12-1.12h66.92a1.13,1.13,0,0,1,1.12,1.12h0A1.12,1.12,0,0,1,302.39,277.83Z"/><path class="cls-31" d="M267.81,298.4H200.89a1.12,1.12,0,0,1-1.12-1.12h0a1.12,1.12,0,0,1,1.12-1.12h66.92a1.12,1.12,0,0,1,1.12,1.12h0A1.13,1.13,0,0,1,267.81,298.4Z"/><rect class="cls-32" x="249.77" y="311.83" width="32.22" height="2.24" rx="0.76"/><rect class="cls-33" x="252.81" y="284.4" width="32.22" height="2.24" rx="0.76"/><circle class="cls-34" cx="308.39" cy="291.58" r="44.16"/><circle class="cls-35" cx="308.39" cy="291.58" r="38.4" transform="translate(-115.86 303.47) rotate(-45)"/><path class="cls-19" d="M321.83,302.22c0-6.37-3.81-10.09-11.24-12.92-5.58-2.13-8.14-3.72-8.14-7.26,0-3.19,2.56-5.84,7.17-5.84a16.77,16.77,0,0,1,6.05,1.13,2.94,2.94,0,0,0,3.8-1.82,3,3,0,0,0-1.81-3.75,22.64,22.64,0,0,0-6.49-1.34V264a2.11,2.11,0,1,0-4.21,0v6.58c-7.5,1-11.95,6.2-11.95,12.36,0,5.14,3.63,9.39,11.33,12.13,5.75,2.12,8,4.16,8,7.88,0,3.54-2.66,6.37-8.32,6.37a19.79,19.79,0,0,1-7.45-1.63,2.94,2.94,0,0,0-3.9,1.83l-.06.17a3,3,0,0,0,1.72,3.68,26.44,26.44,0,0,0,9.51,1.7c.39,0,.77,0,1.15,0v5.13a2.11,2.11,0,1,0,4.21,0v-5.66C318,312.93,321.83,308.3,321.83,302.22Z"/><polygon class="cls-36" points="780.18 319.7 713.12 303.19 679.24 260.4 704.38 255.49 743.47 289.83 780.18 319.7"/><polygon class="cls-36" points="775.83 428.03 788.17 484.19 779.15 486.62 763.37 457.17 775.83 428.03"/><path class="cls-36" d="M727.35,493.05H716.14L673.69,279.23h34.44c.24.58.46,1.19.69,1.83,9.36,27.19,1.71,99.07,1.71,99.07C729.75,401.75,727.35,493.05,727.35,493.05Z"/><path class="cls-36" d="M710.53,380.13c19.22,21.62,16.82,112.92,16.82,112.92h-6.49l-31.3-213.42,19.26,1.43C718.18,308.25,710.53,380.13,710.53,380.13Z"/><path class="cls-36" d="M612.11,139.18v9.41a40.47,40.47,0,0,1-40.36,40.35H417.55v64.87H598.72a75.2,75.2,0,0,0,64-35.91,74.37,74.37,0,0,0,11.11-39.18V139.18Z"/><path class="cls-36" d="M662.7,217.9a75.2,75.2,0,0,1-64,35.91H417.55V217.9Z"/><rect class="cls-36" x="373.11" y="17.57" width="44.44" height="64.86"/><rect class="cls-36" x="373.11" y="188.94" width="44.44" height="64.87"/><path class="cls-36" d="M673.81,92.66v46.52h-61.7V122.79a40.48,40.48,0,0,0-40.36-40.36H417.55V17.57H598.72A75.3,75.3,0,0,1,673.81,92.66Z"/><path class="cls-36" d="M602.7,245.54l-5.16-3.15-7.21-.8s-.8,2.4,5.6,2.4l1.61,1.61L580.72,256s-4.81-4-8-2.41l8.81,4.81,20.82-4.81Z"/><polygon class="cls-36" points="686.71 118.91 704.84 171.12 673.61 171.12 673.61 146.34 681.07 118.91 686.71 118.91"/><path class="cls-36" d="M673.61,146.34l17.48,15.77,9.55-3.08-13.93-40.12s-4.77,3-4.81,3.24S673.61,146.34,673.61,146.34Z"/><path class="cls-36" d="M660.85,119l7.73,29.71,19-8.91-7.73-38S653.72,92.85,660.85,119Z"/><path class="cls-36" d="M683.81,121.19l-2.16.77-3.54-8.8-6-8s-14.82,9.08-22.55,6.7-4.16-7.72-4.16-7.72,3,4.16,7.73-.59,14.85-11.89,25-7.13c0,0,5.94-1.79,7.13,3.56S683.81,121.19,683.81,121.19Z"/><path class="cls-36" d="M684,121.37l-1.78-10.1s1.19-1.78,4.16-1.19,1.78,9.51-2.38,11.88Z"/><path class="cls-36" d="M702.14,163.35,673.61,170S656.8,183,660,224.13s13.61,55.5,13.61,55.5l55,.38c-3.49-2.18-20-13-24.91-34.3-6.69-29.32,15-51.15,16.32-52.41C720.06,193.3,725.07,167.66,702.14,163.35Z"/><path class="cls-36" d="M674.11,178.16l-4,3s5,4,5,14-19.87,28.89-2.93,58.44l-12.07-12.44V220.49l9-17.33s2-13,0-18-2.3-6-2.3-6Z"/><polygon class="cls-36" points="700.64 159.03 673.61 167.75 673.61 178.33 702.44 163.11 700.64 159.03"/><path class="cls-36" d="M701.58,163.12s-19.54,29.43-14,71.93,95,85.84,95,85.84q-8.22-9.21-16.76-18.5-18.67-20.29-37.17-39.07a92,92,0,0,1-8.09-29.76c-2.69-28,8.48-49.55,13.61-58.18C734.16,175.38,708.1,161.48,701.58,163.12Z"/><path class="cls-36" d="M726,193.8c-.51,1.49-1.13,3.42-1.76,5.7a106.87,106.87,0,0,0-2.38,10.58,110.75,110.75,0,0,0-1.54,14.31l-26.94,18.77-35.33,2.25Z"/><path class="cls-36" d="M673.61,168.72l-7.21,7.21-.68,5.46s5.49,13.76-3.32,25.77S632.77,302.45,752.89,276l7.21-12.82-14.42-4.8S688,279.23,673.61,256s-10.7-40.89-3.75-50.87-1.05-24.41-1.05-24.41l4.8-2.4Z"/><path class="cls-36" d="M730.47,175.13s-14.42-6.41-23.22,0S668,231.18,668,231.18s-30.43-2.4-64.87,13.62v8l74.48-10.41S721.66,199.15,730.47,175.13Z"/><polygon class="cls-36" points="602.7 244 607.16 241.99 607.16 253.38 602.7 254 602.7 244"/><path class="cls-36" d="M716.05,493a26.69,26.69,0,0,1-20,10.41v3.21h24.83l4-4.81v4.81h5.61L727.27,493Z"/><polygon class="cls-36" points="788.17 484.19 795.12 497.81 788.85 499.36 786.31 493.65 786.54 498.71 775.22 506.32 765.98 503.69 766.64 501.38 773.24 501.59 779.15 486.62 788.17 484.19"/><path class="cls-36" d="M712.47,355.11q25.46,51,50.9,102.06l12.81-27.53a417.81,417.81,0,0,0-25.57-51.72c-6.53-11.18-13.18-21.39-19.73-30.65l.21-68.42q-8.43.57-17.31.9-7.54.28-14.78.35Z"/><polygon class="cls-37" points="780.18 319.7 713.12 303.19 679.24 260.4 704.38 255.49 743.47 289.83 780.18 319.7"/><polygon class="cls-38" points="775.83 428.03 788.17 484.19 779.15 486.62 763.37 457.17 775.83 428.03"/><path class="cls-38" d="M727.35,493.05H716.14L673.69,279.23h34.44c.24.58.46,1.19.69,1.83,9.36,27.19,1.71,99.07,1.71,99.07C729.75,401.75,727.35,493.05,727.35,493.05Z"/><g class="cls-39"><path class="cls-40" d="M710.53,380.13c19.22,21.62,16.82,112.92,16.82,112.92h-6.49l-31.3-213.42,19.26,1.43C718.18,308.25,710.53,380.13,710.53,380.13Z"/></g><path class="cls-41" d="M612.11,139.18v9.41a40.47,40.47,0,0,1-40.36,40.35H417.55v64.87H598.72a75.2,75.2,0,0,0,64-35.91,74.37,74.37,0,0,0,11.11-39.18V139.18Z"/><g class="cls-42"><path class="cls-43" d="M662.7,217.9a75.2,75.2,0,0,1-64,35.91H417.55V217.9Z"/></g><rect class="cls-44" x="373.11" y="17.57" width="44.44" height="64.86"/><rect class="cls-45" x="373.11" y="188.94" width="44.44" height="64.87"/><path class="cls-46" d="M673.81,92.66v46.52h-61.7V122.79a40.48,40.48,0,0,0-40.36-40.36H417.55V17.57H598.72A75.3,75.3,0,0,1,673.81,92.66Z"/><path class="cls-47" d="M602.7,245.54l-5.16-3.15-7.21-.8s-.8,2.4,5.6,2.4l1.61,1.61L580.72,256s-4.81-4-8-2.41l8.81,4.81,20.82-4.81Z"/><polygon class="cls-48" points="686.71 118.91 704.84 171.12 673.61 171.12 673.61 146.34 681.07 118.91 686.71 118.91"/><g class="cls-49"><path class="cls-50" d="M673.61,146.34l17.48,15.77,9.55-3.08-13.93-40.12s-4.77,3-4.81,3.24S673.61,146.34,673.61,146.34Z"/></g><path class="cls-51" d="M660.85,119l7.73,29.71,19-8.91-7.73-38S653.72,92.85,660.85,119Z"/><path class="cls-52" d="M683.81,121.19l-2.16.77-3.54-8.8-6-8s-14.82,9.08-22.55,6.7-4.16-7.72-4.16-7.72,3,4.16,7.73-.59,14.85-11.89,25-7.13c0,0,5.94-1.79,7.13,3.56S683.81,121.19,683.81,121.19Z"/><path class="cls-53" d="M684,121.37l-1.78-10.1s1.19-1.78,4.16-1.19,1.78,9.51-2.38,11.88Z"/><path class="cls-54" d="M702.14,163.35,673.61,170S656.8,183,660,224.13s13.61,55.5,13.61,55.5l55,.38c-3.49-2.18-20-13-24.91-34.3-6.69-29.32,15-51.15,16.32-52.41C720.06,193.3,725.07,167.66,702.14,163.35Z"/><g class="cls-55"><path class="cls-56" d="M674.11,178.16l-4,3s5,4,5,14-19.87,28.89-2.93,58.44l-12.07-12.44V220.49l9-17.33s2-13,0-18-2.3-6-2.3-6Z"/></g><polygon class="cls-57" points="700.64 159.03 673.61 167.75 673.61 178.33 702.44 163.11 700.64 159.03"/><path class="cls-38" d="M701.58,163.12s-19.54,29.43-14,71.93,95,85.84,95,85.84q-8.22-9.21-16.76-18.5-18.67-20.29-37.17-39.07a92,92,0,0,1-8.09-29.76c-2.69-28,8.48-49.55,13.61-58.18C734.16,175.38,708.1,161.48,701.58,163.12Z"/><g class="cls-58"><path class="cls-59" d="M726,193.8c-.51,1.49-1.13,3.42-1.76,5.7a106.87,106.87,0,0,0-2.38,10.58,110.75,110.75,0,0,0-1.54,14.31l-26.94,18.77-35.33,2.25Z"/></g><path class="cls-60" d="M673.61,168.72l-7.21,7.21-.68,5.46s5.49,13.76-3.32,25.77S632.77,302.45,752.89,276l7.21-12.82-14.42-4.8S688,279.23,673.61,256s-10.7-40.89-3.75-50.87-1.05-24.41-1.05-24.41l4.8-2.4Z"/><path class="cls-38" d="M730.47,175.13s-14.42-6.41-23.22,0S668,231.18,668,231.18s-30.43-2.4-64.87,13.62v8l74.48-10.41S721.66,199.15,730.47,175.13Z"/><polygon class="cls-61" points="602.7 244 607.16 241.99 607.16 253.38 602.7 254 602.7 244"/><path class="cls-62" d="M716.05,493a26.69,26.69,0,0,1-20,10.41v3.21h24.83l4-4.81v4.81h5.61L727.27,493Z"/><polygon class="cls-62" points="788.17 484.19 795.12 497.81 788.85 499.36 786.31 493.65 786.54 498.71 775.22 506.32 765.98 503.69 766.64 501.38 773.24 501.59 779.15 486.62 788.17 484.19"/><path class="cls-38" d="M712.47,355.11q25.46,51,50.9,102.06l12.81-27.53a417.81,417.81,0,0,0-25.57-51.72c-6.53-11.18-13.18-21.39-19.73-30.65l.21-68.42q-8.43.57-17.31.9-7.54.28-14.78.35Z"/><path class="cls-19" d="M265.51,28.18H185.83a1.34,1.34,0,0,1-1.33-1.33h0a1.34,1.34,0,0,1,1.33-1.33h79.68a1.34,1.34,0,0,1,1.34,1.33h0A1.34,1.34,0,0,1,265.51,28.18Z"/><path class="cls-19" d="M224.34,52.67H144.66a1.34,1.34,0,0,1-1.34-1.34h0A1.34,1.34,0,0,1,144.66,50h79.68a1.34,1.34,0,0,1,1.33,1.33h0A1.34,1.34,0,0,1,224.34,52.67Z"/><rect class="cls-19" x="202.86" y="68.67" width="38.37" height="2.67" rx="0.91"/><rect class="cls-19" x="206.49" y="36" width="38.37" height="2.67" rx="0.91"/><circle class="cls-19" cx="260.35" cy="50" r="50"/><path class="cls-63" d="M248.37,43.74,250,41.36l1.59-19.85s7.93-.79,7.93,6.35v12.7h19.85v27h-26.2a4.61,4.61,0,0,0-4.76-3.18Z"/><path class="cls-19" d="M286.28,36a10.24,10.24,0,0,1,0,8.52Z"/><path class="cls-19" d="M286.28,44.49a10.24,10.24,0,0,1,0,8.52Z"/><path class="cls-19" d="M286.28,53a10.24,10.24,0,0,1,0,8.52Z"/><path class="cls-19" d="M286.28,61.48a10.24,10.24,0,0,1,0,8.52Z"/><rect class="cls-64" x="234.08" y="42.15" width="11.91" height="24.61" transform="translate(480.07 108.92) rotate(180)"/><path class="cls-19" d="M316.23,186.66H269.41a.8.8,0,0,1-.79-.79h0a.79.79,0,0,1,.79-.78h46.82a.78.78,0,0,1,.78.78h0A.79.79,0,0,1,316.23,186.66Z"/><path class="cls-19" d="M292,201H245.21a.78.78,0,0,1-.78-.78h0a.78.78,0,0,1,.78-.78H292a.78.78,0,0,1,.78.78h0A.78.78,0,0,1,292,201Z"/><rect class="cls-19" x="279.42" y="210.45" width="22.55" height="1.57" rx="0.53"/><rect class="cls-19" x="281.55" y="191.25" width="22.55" height="1.57" rx="0.53"/><circle class="cls-19" cx="313.19" cy="199.48" r="29.38"/><path class="cls-65" d="M306.16,195.8l.93-1.4.93-11.66s4.67-.47,4.67,3.73v7.46h11.66v15.86H309a2.71,2.71,0,0,0-2.8-1.86Z"/><path class="cls-19" d="M328.43,191.25a6,6,0,0,1,0,5Z"/><path class="cls-19" d="M328.43,196.24a6,6,0,0,1,0,5Z"/><path class="cls-19" d="M328.43,201.23a6,6,0,0,1,0,5Z"/><path class="cls-19" d="M328.43,206.22a6,6,0,0,1,0,5Z"/><rect class="cls-66" x="297.76" y="194.86" width="7" height="14.46" transform="translate(602.52 404.19) rotate(180)"/><path class="cls-19" d="M132.73,267.34H98.48a.58.58,0,0,1-.58-.58h0a.58.58,0,0,1,.58-.57h34.25a.58.58,0,0,1,.57.57h0A.58.58,0,0,1,132.73,267.34Z"/><path class="cls-19" d="M115,277.86H80.78a.58.58,0,0,1-.58-.57h0a.58.58,0,0,1,.58-.58H115a.58.58,0,0,1,.57.58h0A.58.58,0,0,1,115,277.86Z"/><rect class="cls-19" x="105.8" y="284.74" width="16.49" height="1.15" rx="0.39"/><rect class="cls-19" x="107.35" y="270.7" width="16.49" height="1.15" rx="0.39"/><circle class="cls-19" cx="130.51" cy="276.71" r="21.49" transform="translate(-164.76 196.6) rotate(-49.57)"/><path class="cls-67" d="M125.36,274l.68-1,.68-8.53s3.42-.34,3.42,2.73v5.46h8.53v11.6H127.41a2,2,0,0,0-2-1.36Z"/><path class="cls-19" d="M141.65,270.7a4.39,4.39,0,0,1,0,3.66Z"/><path class="cls-19" d="M141.65,274.35a4.39,4.39,0,0,1,0,3.66Z"/><path class="cls-19" d="M141.65,278a4.39,4.39,0,0,1,0,3.66Z"/><path class="cls-19" d="M141.65,281.65a4.4,4.4,0,0,1,0,3.66Z"/><rect class="cls-68" x="119.22" y="273.34" width="5.12" height="10.58" transform="translate(243.55 557.26) rotate(180)"/></g></g></svg>