<svg xmlns="http://www.w3.org/2000/svg" width="71.977" height="61" viewBox="0 0 71.977 61">
  <g id="Group_2371" data-name="Group 2371" transform="translate(-1159 -1032.849)">
    <g id="first-aid" transform="translate(1159 1032.849)">
      <path id="Path_3482" data-name="Path 3482" d="M10.577,16.033H16.05V11.387H41.67v4.743H47.14V7.972h0a2.228,2.228,0,0,0-2.206-2.225H12.78a2.231,2.231,0,0,0-2.213,2.245c0,.04.01.078.012.118v7.923Z" transform="translate(7.036 -5.747)" fill="#002e5b"/>
      <path id="Path_3483" data-name="Path 3483" d="M8.918,58.005H53.933V11.822H8.918V58.008Zm8.913-26.328a.708.708,0,0,1,.684-.692h9.136V21.755a.688.688,0,0,1,.684-.692h6.4a.688.688,0,0,1,.684.694v9.231h9.136a.688.688,0,0,1,.684.692v6.467a.688.688,0,0,1-.684.692H35.421v9.234a.688.688,0,0,1-.684.692h-6.4a.688.688,0,0,1-.684-.692V38.839H18.515a.688.688,0,0,1-.684-.692V31.68Z" transform="translate(4.553 2.992)" fill="#05c5db"/>
      <path id="Path_3484" data-name="Path 3484" d="M7.148,11.822a3.606,3.606,0,0,0-3.606,3.606c0,.048.013.093.015.138V54.3c0,.033-.01.06-.01.093A3.608,3.608,0,0,0,7.148,58v.008h5.375V11.822H7.145Z" transform="translate(-3.542 2.992)" fill="#002e5b"/>
      <path id="Path_3485" data-name="Path 3485" d="M37.864,54.371V15.409h-.018a3.608,3.608,0,0,0-3.6-3.588H28.868V58.007h5.36v0l.033,0A3.606,3.606,0,0,0,37.866,54.4C37.866,54.391,37.864,54.381,37.864,54.371Z" transform="translate(34.111 2.991)" fill="#002e5b"/>
    </g>
  </g>
</svg>
