<svg id="home" xmlns="http://www.w3.org/2000/svg" width="65.352" height="61" viewBox="0 0 65.352 61">
  <path id="Path_1" data-name="Path 1" d="M29.33,2.247a1.145,1.145,0,0,0-1.571,0L1.256,23.87c-.224.212,0,3.561,0,3.868L1.249,50.9a4.518,4.518,0,0,0,4.546,4.49H19.446a2.263,2.263,0,0,0,2.277-2.249V34.06a1.128,1.128,0,0,1,1.135-1.121H34.225A1.128,1.128,0,0,1,35.36,34.06V53.142a2.263,2.263,0,0,0,2.277,2.249H51.281a4.518,4.518,0,0,0,4.546-4.49V22.864" transform="translate(4.136 5.609)" fill="#fff"/>
  <path id="Path_2" data-name="Path 2" d="M64.971,24.5,54.786,16.443V4.225a2.02,2.02,0,0,0-2.182-1.8H46.065a2.02,2.02,0,0,0-2.182,1.8v3.6L36,1.593a5.158,5.158,0,0,0-6.023.006L1.015,24.5a1.616,1.616,0,0,0-.181,2.517,2.385,2.385,0,0,0,1.546.614,2.46,2.46,0,0,0,1.605-.5L32.24,4.819a1.258,1.258,0,0,1,1.506,0L62,27.129a2.519,2.519,0,0,0,3.074-.052,1.628,1.628,0,0,0-.1-2.586Z" transform="translate(-0.313 -0.625)" fill="#fff"/>
</svg>
