<svg xmlns="http://www.w3.org/2000/svg" width="70.825" height="60.697" viewBox="0 0 70.825 60.697">
  <g id="Group_2370" data-name="Group 2370" transform="translate(-49.166 -190.627)">
    <path id="Path_3480" data-name="Path 3480" d="M98.346,222.189H110.4a4.984,4.984,0,0,1-.4.418,3.934,3.934,0,0,1-.354.3l-.121.156L84.9,246.769a2.5,2.5,0,0,1-3.484,0L56.766,222.987a3.613,3.613,0,0,1-.828-.793H70.524a2.471,2.471,0,0,0,1.559-.531,2.4,2.4,0,0,0,.892-1.367l2.769-11.107,7.508,26.359a2.474,2.474,0,0,0,.905,1.3,2.525,2.525,0,0,0,1.544.517,2.4,2.4,0,0,0,1.5-.517,2.508,2.508,0,0,0,.905-1.3l5.769-19.166,2.216,4.426A2.364,2.364,0,0,0,98.346,222.189Z" transform="translate(1.403 3.847)" fill="#05c5db"/>
    <path id="Path_3481" data-name="Path 3481" d="M119.984,209.124a21.467,21.467,0,0,1-4.072,11.855H101.331l-4.383-8.732a2.414,2.414,0,0,0-1.006-1.07,2.517,2.517,0,0,0-3.43.95,2.545,2.545,0,0,0-.232.552l-5.1,16.989-7.74-27.11a2.436,2.436,0,0,0-.928-1.309,2.583,2.583,0,0,0-1.569-.509,2.468,2.468,0,0,0-2.414,1.9l-4.588,18.334h-16.7a21.485,21.485,0,0,1-4.072-11.849q0-8.692,5.021-13.6t13.866-4.9a15.751,15.751,0,0,1,5,.845,20.187,20.187,0,0,1,4.744,2.294q2.195,1.449,3.775,2.705a36.048,36.048,0,0,1,3,2.69,36.14,36.14,0,0,1,3-2.684q1.581-1.262,3.775-2.711a20.241,20.241,0,0,1,4.746-2.294,15.762,15.762,0,0,1,5-.845q8.853,0,13.874,4.9t5.021,13.6Z" transform="translate(0 0)" fill="#002e5b"/>
  </g>
</svg>
