<svg xmlns="http://www.w3.org/2000/svg" width="616.388" height="422.009" viewBox="0 0 616.388 422.009">
  <g id="Filter-rafiki" transform="translate(42.333 -48.305)">
    <g id="freepik--background-complete--inject-2" transform="translate(14 59.008)">
      <rect id="Rectangle_1" data-name="Rectangle 1" width="552" height="0.276" transform="translate(0 361.45)" fill="#ebebeb"/>
      <rect id="Rectangle_2" data-name="Rectangle 2" width="36.564" height="0.276" transform="translate(460.125 379.213)" fill="#ebebeb"/>
      <rect id="Rectangle_3" data-name="Rectangle 3" width="9.594" height="0.276" transform="translate(356.073 382.216)" fill="#ebebeb"/>
      <rect id="Rectangle_4" data-name="Rectangle 4" width="21.186" height="0.276" transform="translate(437.835 368.968)" fill="#ebebeb"/>
      <rect id="Rectangle_5" data-name="Rectangle 5" width="47.682" height="0.276" transform="translate(57.916 370.823)" fill="#ebebeb"/>
      <rect id="Rectangle_6" data-name="Rectangle 6" width="6.988" height="0.276" transform="translate(115.434 370.823)" fill="#ebebeb"/>
      <rect id="Rectangle_7" data-name="Rectangle 7" width="103.423" height="0.276" transform="translate(145.143 375.481)" fill="#ebebeb"/>
      <path id="Path_1" data-name="Path 1" d="M257.674,367.211H44.5a6.3,6.3,0,0,1-6.293-6.3V61.249A6.3,6.3,0,0,1,44.5,55H257.674a6.3,6.3,0,0,1,6.3,6.3v299.6A6.3,6.3,0,0,1,257.674,367.211ZM44.5,55.221a6.028,6.028,0,0,0-6.017,6.028V360.907a6.028,6.028,0,0,0,6.017,6.028H257.674a6.039,6.039,0,0,0,6.028-6.028V61.249a6.039,6.039,0,0,0-6.028-6.028Z" transform="translate(3.974 -55)" fill="#ebebeb"/>
      <path id="Path_2" data-name="Path 2" d="M473.986,367.211H260.8a6.315,6.315,0,0,1-6.3-6.3V61.249A6.315,6.315,0,0,1,260.8,55H473.986a6.3,6.3,0,0,1,6.282,6.249V360.907A6.3,6.3,0,0,1,473.986,367.211ZM260.8,55.221a6.039,6.039,0,0,0-6.028,6.028V360.907a6.039,6.039,0,0,0,6.028,6.028H473.986a6.039,6.039,0,0,0,6.028-6.028V61.249a6.039,6.039,0,0,0-6.028-6.028Z" transform="translate(26.468 -55)" fill="#ebebeb"/>
      <rect id="Rectangle_8" data-name="Rectangle 8" width="54.151" height="66.218" transform="translate(97.273 39.612)" fill="#f0f0f0"/>
      <rect id="Rectangle_9" data-name="Rectangle 9" width="62.288" height="66.218" transform="translate(100.762 39.612)" fill="#f5f5f5"/>
      <rect id="Rectangle_10" data-name="Rectangle 10" width="55.785" height="51.855" transform="translate(157.828 44.833) rotate(90)" fill="#fff"/>
      <rect id="Rectangle_11" data-name="Rectangle 11" width="28.737" height="26.717" transform="translate(145.264 58.346) rotate(90)" fill="#f5f5f5"/>
      <rect id="Rectangle_12" data-name="Rectangle 12" width="54.151" height="66.218" transform="translate(188.64 70.391)" fill="#f0f0f0"/>
      <rect id="Rectangle_13" data-name="Rectangle 13" width="62.288" height="66.218" transform="translate(192.14 70.391)" fill="#f5f5f5"/>
      <rect id="Rectangle_14" data-name="Rectangle 14" width="55.785" height="51.855" transform="translate(249.206 75.613) rotate(90)" fill="#fff"/>
      <rect id="Rectangle_15" data-name="Rectangle 15" width="28.737" height="26.717" rx="9.68" transform="translate(236.642 89.126) rotate(90)" fill="#f5f5f5"/>
      <rect id="Rectangle_16" data-name="Rectangle 16" width="30.018" height="56.216" transform="translate(460.589 305.234)" fill="#e6e6e6"/>
      <path id="Path_3" data-name="Path 3" d="M439.783,384.392h5.708V363.25H433.81Z" transform="translate(45.116 -22.942)" fill="#f0f0f0"/>
      <rect id="Rectangle_17" data-name="Rectangle 17" width="30.018" height="56.216" transform="translate(289.325 305.234)" fill="#e6e6e6"/>
      <rect id="Rectangle_18" data-name="Rectangle 18" width="176.232" height="50.442" transform="translate(314.364 305.234)" fill="#f0f0f0"/>
      <path id="Path_4" data-name="Path 4" d="M290.458,384.392H284.75V363.25h11.68Z" transform="translate(29.614 -22.942)" fill="#f0f0f0"/>
      <rect id="Rectangle_19" data-name="Rectangle 19" width="32.226" height="52.241" transform="translate(320.226 346.192) rotate(-90)" fill="#e6e6e6"/>
      <path id="Path_5" data-name="Path 5" d="M320.5,350.649H310.118c-4.493,0-8.832-4.526-11.868-12.519h34.069C329.283,346.123,324.989,350.649,320.5,350.649Z" transform="translate(31.018 -25.554)" fill="#f0f0f0"/>
      <rect id="Rectangle_20" data-name="Rectangle 20" width="32.226" height="52.241" transform="translate(376.365 346.181) rotate(-90)" fill="#e6e6e6"/>
      <path id="Path_6" data-name="Path 6" d="M371.821,350.649H361.488c-4.493,0-8.832-4.526-11.868-12.519h34.069C380.6,346.123,376.315,350.649,371.821,350.649Z" transform="translate(36.36 -25.554)" fill="#f0f0f0"/>
      <rect id="Rectangle_21" data-name="Rectangle 21" width="32.226" height="52.241" transform="translate(432.492 346.192) rotate(-90)" fill="#e6e6e6"/>
      <path id="Path_7" data-name="Path 7" d="M422.671,350.649H412.338c-4.493,0-8.832-4.526-11.868-12.519h34.069C431.448,346.123,427.154,350.649,422.671,350.649Z" transform="translate(41.649 -25.554)" fill="#f0f0f0"/>
      <rect id="Rectangle_22" data-name="Rectangle 22" width="171.804" height="146.236" transform="translate(310.036 32.215)" fill="#e6e6e6"/>
      <rect id="Rectangle_23" data-name="Rectangle 23" width="174.796" height="146.236" transform="translate(312.664 32.215)" fill="#f0f0f0"/>
      <rect id="Rectangle_24" data-name="Rectangle 24" width="171.804" height="10.422" transform="translate(310.036 178.451)" fill="#e6e6e6"/>
      <rect id="Rectangle_25" data-name="Rectangle 25" width="174.796" height="10.422" transform="translate(322.004 178.451)" fill="#f0f0f0"/>
      <rect id="Rectangle_26" data-name="Rectangle 26" width="130.537" height="159.097" transform="translate(479.6 40.064) rotate(90)" fill="#fafafa"/>
      <path id="Path_8" data-name="Path 8" d="M382.06,221.826,394.624,91.3h21.76L403.809,221.826Z" transform="translate(39.734 -51.225)" fill="#fff"/>
      <path id="Path_9" data-name="Path 9" d="M293.667,177.154a.607.607,0,0,1-.607-.6V95.966a.607.607,0,0,1,.607-.6.6.6,0,0,1,.6.6v80.592A.6.6,0,0,1,293.667,177.154Z" transform="translate(30.478 -50.802)" fill="#f0f0f0"/>
      <path id="Path_10" data-name="Path 10" d="M405.99,221.826,418.565,91.3h8.479L414.469,221.826Z" transform="translate(42.223 -51.225)" fill="#fff"/>
      <rect id="Rectangle_27" data-name="Rectangle 27" width="130.537" height="0.994" transform="translate(479.611 40.064) rotate(90)" fill="#e6e6e6"/>
      <path id="Path_11" data-name="Path 11" d="M459.473,105.244H287.658L286.94,94.06h171.8Z" transform="translate(29.842 -50.938)" fill="#e0e0e0" opacity="0.5"/>
      <path id="Path_12" data-name="Path 12" d="M459.473,121.894H287.658l-.718-11.184h171.8Z" transform="translate(29.842 -49.206)" fill="#e0e0e0" opacity="0.5"/>
      <path id="Path_13" data-name="Path 13" d="M459.473,138.544H287.658l-.718-11.184h171.8Z" transform="translate(29.842 -47.475)" fill="#e0e0e0" opacity="0.5"/>
      <path id="Path_14" data-name="Path 14" d="M459.473,155.194H287.658l-.718-11.184h171.8Z" transform="translate(29.842 -45.743)" fill="#e0e0e0" opacity="0.5"/>
      <path id="Path_15" data-name="Path 15" d="M459.473,171.844H287.658l-.718-11.184h171.8Z" transform="translate(29.842 -44.011)" fill="#e0e0e0" opacity="0.5"/>
      <path id="Path_16" data-name="Path 16" d="M459.473,188.494H287.658l-.718-11.184h171.8Z" transform="translate(29.842 -42.28)" fill="#e0e0e0" opacity="0.5"/>
      <rect id="Rectangle_28" data-name="Rectangle 28" width="52.352" height="133.86" transform="translate(215.468 227.59)" fill="#e6e6e6"/>
      <path id="Path_17" data-name="Path 17" d="M238.34,384.117h5.266V365.89H232.82Z" transform="translate(24.213 -22.667)" fill="#f0f0f0"/>
      <rect id="Rectangle_29" data-name="Rectangle 29" width="52.352" height="133.86" transform="translate(133.418 227.59)" fill="#e6e6e6"/>
      <rect id="Rectangle_30" data-name="Rectangle 30" width="86.642" height="122.676" transform="translate(181.177 227.59)" fill="#f0f0f0"/>
      <rect id="Rectangle_31" data-name="Rectangle 31" width="78.472" height="33.639" transform="translate(185.262 233.021)" fill="#e6e6e6"/>
      <path id="Path_18" data-name="Path 18" d="M212.7,276.621H200.869c-5.134,0-10.046-4.151-13.579-11.471h38.993C222.75,272.47,217.882,276.621,212.7,276.621Z" transform="translate(19.478 -33.144)" fill="#f0f0f0"/>
      <path id="Path_19" data-name="Path 19" d="M169.376,384.117H164.11V365.89H174.9Z" transform="translate(17.067 -22.667)" fill="#f0f0f0"/>
      <rect id="Rectangle_32" data-name="Rectangle 32" width="78.472" height="33.639" transform="translate(185.262 272.103)" fill="#e6e6e6"/>
      <path id="Path_20" data-name="Path 20" d="M212.7,312.022H200.869c-5.134,0-10.046-4.151-13.579-11.482h38.993C222.75,307.871,217.882,312.022,212.7,312.022Z" transform="translate(19.478 -29.464)" fill="#f0f0f0"/>
      <rect id="Rectangle_33" data-name="Rectangle 33" width="78.472" height="33.639" transform="translate(185.262 311.184)" fill="#e6e6e6"/>
      <path id="Path_21" data-name="Path 21" d="M212.7,347.422H200.869c-5.134,0-10.046-4.151-13.579-11.482h38.993C222.75,343.271,217.882,347.422,212.7,347.422Z" transform="translate(19.478 -25.782)" fill="#f0f0f0"/>
      <rect id="Rectangle_34" data-name="Rectangle 34" width="44.889" height="65.125" rx="6.31" transform="translate(369.089 305.101) rotate(180)" fill="#f5f5f5"/>
      <path id="Path_22" data-name="Path 22" d="M407.384,298.54s-1.1,36.233-43.542,36.233S320.3,298.54,320.3,298.54Z" transform="translate(33.311 -29.672)" fill="#f0f0f0"/>
      <path id="Path_23" data-name="Path 23" d="M91.266,372h2.208c0-9.218,0-12.31.232-65.92.386-97.152,1.1-103.08,1.1-103.08l-5.156,44.856C86.419,297.524,90.636,327.134,91.266,372Z" transform="translate(9.198 -39.608)" fill="#f0f0f0"/>
      <path id="Path_24" data-name="Path 24" d="M93.618,385.613h0A29.477,29.477,0,0,1,64.8,362.429a61.052,61.052,0,0,0-3-10.378l-.221-.541h64.032l-.221.541a61.054,61.054,0,0,0-3,10.378A29.477,29.477,0,0,1,93.618,385.613Z" transform="translate(6.404 -24.163)" fill="#fafafa"/>
      <path id="Path_25" data-name="Path 25" d="M130.382,355.9H58.014L55.95,340.23h76.507Z" transform="translate(5.819 -25.336)" fill="#f0f0f0"/>
      <path id="Path_26" data-name="Path 26" d="M92.559,281.866C105.2,259.842,72.422,251.959,61.79,232.33,49.028,247.83,77.743,307.667,92.559,281.866Z" transform="translate(6.095 -36.558)" fill="#f0f0f0"/>
      <path id="Path_27" data-name="Path 27" d="M91.632,264.823c-4.88-11.1,18.591-24.564,23.659-42.6C124.653,232.631,106.062,297.689,91.632,264.823Z" transform="translate(9.461 -37.609)" fill="#f0f0f0"/>
      <path id="Path_28" data-name="Path 28" d="M91.525,293.972c3.974-13.988,26.695-3.9,38.287-30.172C142.143,300.916,80.507,332.833,91.525,293.972Z" transform="translate(9.381 -33.285)" fill="#f0f0f0"/>
      <path id="Path_29" data-name="Path 29" d="M96.19,308.642c-.265-13.248-14.705-1.5-40.848-25.182C50.584,307.9,97.195,359.989,96.19,308.642Z" transform="translate(5.72 -31.24)" fill="#f0f0f0"/>
    </g>
    <g id="freepik--Shadow--inject-2" transform="translate(-42.333 441.5)">
      <ellipse id="freepik--path--inject-2" cx="308.194" cy="14.407" rx="308.194" ry="14.407" fill="#f5f5f5"/>
    </g>
    <g id="freepik--Filter--inject-2" transform="translate(167.087 48.305)">
      <circle id="Ellipse_1" data-name="Ellipse 1" cx="37.094" cy="37.094" r="37.094" transform="matrix(0.149, -0.989, 0.989, 0.149, 137.517, 122.583)" fill="#05c5db"/>
      <path id="Path_30" data-name="Path 30" d="M269.8,141.249a30.616,30.616,0,1,1-18.613-39.093A30.616,30.616,0,0,1,269.8,141.249Z" transform="translate(-61.213 -39.577)" fill="#fff"/>
      <path id="Path_31" data-name="Path 31" d="M261.4,150.567a30.614,30.614,0,0,1-50.784-18.006A48.466,48.466,0,0,1,261.4,150.567Z" transform="translate(-61.183 -36.386)" fill="#002e5b" opacity="0.4"/>
      <path id="Path_32" data-name="Path 32" d="M255.375,125.035a13.623,13.623,0,1,1-.53-10.431A13.634,13.634,0,0,1,255.375,125.035Z" transform="translate(-59.282 -38.907)" fill="#002e5b" opacity="0.4"/>
      <circle id="Ellipse_2" data-name="Ellipse 2" cx="31.298" cy="31.298" r="31.298" transform="translate(11.634 68.381) rotate(-0.17)" fill="#002e5b"/>
      <circle id="Ellipse_3" data-name="Ellipse 3" cx="31.298" cy="31.298" r="31.298" transform="translate(11.634 68.381) rotate(-0.17)" fill="#fafafa" opacity="0.6"/>
      <path id="Path_33" data-name="Path 33" d="M140.875,128.958a25.828,25.828,0,1,1-33.2-15.235,25.828,25.828,0,0,1,33.2,15.235Z" transform="translate(-73.641 -38.358)" fill="#fff"/>
      <path id="Path_34" data-name="Path 34" d="M141.4,138.9A25.834,25.834,0,0,1,98.82,154.7,40.914,40.914,0,0,1,141.4,138.9Z" transform="translate(-72.81 -35.686)" fill="#263238"/>
      <path id="Path_35" data-name="Path 35" d="M123.32,125.088a11.493,11.493,0,1,1-5.988-6.465,11.5,11.5,0,0,1,5.988,6.465Z" transform="translate(-72.58 -37.789)" fill="#263238"/>
      <circle id="Ellipse_4" data-name="Ellipse 4" cx="35.714" cy="35.714" r="35.714" transform="translate(51.053 50.508) rotate(-45)" fill="#002e5b"/>
      <path id="Path_36" data-name="Path 36" d="M199.229,89.864a29.278,29.278,0,1,1-11.291-19.533,29.477,29.477,0,0,1,11.291,19.533Z" transform="translate(-68.471 -43.326)" fill="#fff"/>
      <path id="Path_37" data-name="Path 37" d="M197.047,100.945a29.466,29.466,0,0,1-51.347,6.966,46.688,46.688,0,0,1,51.347-6.966Z" transform="translate(-67.934 -40.01)" fill="#05c5db"/>
      <path id="Path_96" data-name="Path 96" d="M13.127,0A13.127,13.127,0,1,1,0,13.127,13.127,13.127,0,0,1,13.127,0Z" transform="translate(81.795 43.008) rotate(-52.73)" fill="#05c5db"/>
      <g id="coins">
        <rect id="Rectangle_35" data-name="Rectangle 35" width="56.26" height="9.759" transform="translate(90.373 399.753)" fill="#002e5b"/>
        <rect id="Rectangle_36" data-name="Rectangle 36" width="2.252" height="9.759" transform="translate(93.156 399.753)" fill="#05c5db" opacity="0.2"/>
        <rect id="Rectangle_37" data-name="Rectangle 37" width="2.252" height="9.759" transform="translate(99.205 399.753)" fill="#05c5db" opacity="0.2"/>
        <rect id="Rectangle_38" data-name="Rectangle 38" width="2.252" height="9.759" transform="translate(105.266 399.753)" fill="#05c5db" opacity="0.2"/>
        <rect id="Rectangle_39" data-name="Rectangle 39" width="2.252" height="9.759" transform="translate(111.327 399.753)" fill="#05c5db" opacity="0.2"/>
        <rect id="Rectangle_40" data-name="Rectangle 40" width="2.252" height="9.759" transform="translate(117.377 399.753)" fill="#05c5db" opacity="0.2"/>
        <rect id="Rectangle_41" data-name="Rectangle 41" width="2.252" height="9.759" transform="translate(123.438 399.753)" fill="#05c5db" opacity="0.2"/>
        <rect id="Rectangle_42" data-name="Rectangle 42" width="2.252" height="9.759" transform="translate(129.488 399.753)" fill="#05c5db" opacity="0.2"/>
        <rect id="Rectangle_43" data-name="Rectangle 43" width="2.252" height="9.759" transform="translate(135.549 399.753)" fill="#05c5db" opacity="0.2"/>
        <rect id="Rectangle_44" data-name="Rectangle 44" width="2.252" height="9.759" transform="translate(141.61 399.753)" fill="#05c5db" opacity="0.2"/>
        <rect id="Rectangle_45" data-name="Rectangle 45" width="56.26" height="9.759" transform="translate(88.386 389.993)" fill="#002e5b"/>
        <rect id="Rectangle_46" data-name="Rectangle 46" width="2.252" height="9.759" transform="translate(91.168 389.993)" fill="#05c5db" opacity="0.2"/>
        <rect id="Rectangle_47" data-name="Rectangle 47" width="2.252" height="9.759" transform="translate(97.218 389.993)" fill="#05c5db" opacity="0.2"/>
        <rect id="Rectangle_48" data-name="Rectangle 48" width="2.252" height="9.759" transform="translate(103.279 389.993)" fill="#05c5db" opacity="0.2"/>
        <rect id="Rectangle_49" data-name="Rectangle 49" width="2.252" height="9.759" transform="translate(109.34 389.993)" fill="#05c5db" opacity="0.2"/>
        <rect id="Rectangle_50" data-name="Rectangle 50" width="2.252" height="9.759" transform="translate(115.39 389.993)" fill="#05c5db" opacity="0.2"/>
        <rect id="Rectangle_51" data-name="Rectangle 51" width="2.252" height="9.759" transform="translate(121.451 389.993)" fill="#05c5db" opacity="0.2"/>
        <rect id="Rectangle_52" data-name="Rectangle 52" width="2.252" height="9.759" transform="translate(127.512 389.993)" fill="#05c5db" opacity="0.2"/>
        <rect id="Rectangle_53" data-name="Rectangle 53" width="2.252" height="9.759" transform="translate(133.562 389.993)" fill="#05c5db" opacity="0.2"/>
        <rect id="Rectangle_54" data-name="Rectangle 54" width="2.252" height="9.759" transform="translate(139.623 389.993)" fill="#05c5db" opacity="0.2"/>
        <rect id="Rectangle_55" data-name="Rectangle 55" width="56.26" height="9.759" transform="translate(89.965 380.234)" fill="#002e5b"/>
        <rect id="Rectangle_56" data-name="Rectangle 56" width="2.252" height="9.759" transform="translate(92.747 380.234)" fill="#05c5db" opacity="0.2"/>
        <rect id="Rectangle_57" data-name="Rectangle 57" width="2.252" height="9.759" transform="translate(98.808 380.234)" fill="#05c5db" opacity="0.2"/>
        <rect id="Rectangle_58" data-name="Rectangle 58" width="2.252" height="9.759" transform="translate(104.858 380.234)" fill="#05c5db" opacity="0.2"/>
        <rect id="Rectangle_59" data-name="Rectangle 59" width="2.252" height="9.759" transform="translate(110.919 380.234)" fill="#05c5db" opacity="0.2"/>
        <rect id="Rectangle_60" data-name="Rectangle 60" width="2.252" height="9.759" transform="translate(116.98 380.234)" fill="#05c5db" opacity="0.2"/>
        <rect id="Rectangle_61" data-name="Rectangle 61" width="2.252" height="9.759" transform="translate(123.03 380.234)" fill="#05c5db" opacity="0.2"/>
        <rect id="Rectangle_62" data-name="Rectangle 62" width="2.252" height="9.759" transform="translate(129.091 380.234)" fill="#05c5db" opacity="0.2"/>
        <rect id="Rectangle_63" data-name="Rectangle 63" width="2.252" height="9.759" transform="translate(135.141 380.234)" fill="#05c5db" opacity="0.2"/>
        <rect id="Rectangle_64" data-name="Rectangle 64" width="2.252" height="9.759" transform="translate(141.202 380.234)" fill="#05c5db" opacity="0.2"/>
      </g>
      <circle id="Ellipse_6" data-name="Ellipse 6" cx="28.362" cy="28.362" r="28.362" transform="translate(81.364 326.008) rotate(-12.99)" fill="#002e5b"/>
      <path id="Path_38" data-name="Path 38" d="M202.226,374.723a23.813,23.813,0,1,1-7.573-32.822,23.813,23.813,0,0,1,7.573,32.822Z" transform="translate(-66.632 -14.836)" opacity="0.2"/>
      <circle id="Ellipse_7" data-name="Ellipse 7" cx="23.405" cy="23.405" r="23.405" transform="translate(87.702 330.681) rotate(-12.99)" fill="#05c5db"/>
      <path id="Path_39" data-name="Path 39" d="M189.114,366.2l-3.511,5.63a1.811,1.811,0,0,1-1.214.828,1.9,1.9,0,0,1-1.468-.243l-4.946-3.091L175.5,373.29a1.921,1.921,0,0,1-2.639.607,1.9,1.9,0,0,1-.883-1.214,1.766,1.766,0,0,1,.232-1.446l2.5-4.008-4.9-3.069a1.866,1.866,0,0,1-.85-1.181,1.92,1.92,0,0,1,1.435-2.307,1.866,1.866,0,0,1,1.446.243l11.482,7.176,1.457-2.34L173.338,358.6a1.833,1.833,0,0,1-.861-1.181,1.811,1.811,0,0,1,.243-1.457l3.511-5.6a1.833,1.833,0,0,1,1.192-.861,1.91,1.91,0,0,1,1.446.243l4.869,3.047,2.473-3.963a1.921,1.921,0,0,1,2.7-.574,1.833,1.833,0,0,1,.828,1.181,1.8,1.8,0,0,1-.243,1.446l-2.473,3.963,4.979,3.124a1.9,1.9,0,0,1,.872,1.214,1.8,1.8,0,0,1-.221,1.446,1.844,1.844,0,0,1-1.225.861,1.877,1.877,0,0,1-1.446-.232L178.5,354.08l-1.446,2.318,11.448,7.154a1.91,1.91,0,0,1,.861,1.214A1.777,1.777,0,0,1,189.114,366.2Z" transform="translate(-65.522 -13.833)" fill="#fafafa"/>
      <path id="Path_40" data-name="Path 40" d="M197.476,338.475a28.384,28.384,0,0,0-43.266,21.263h56.459A28.307,28.307,0,0,0,197.476,338.475Z" transform="translate(-67.049 -15.263)" opacity="0.4"/>
      <path id="Path_41" data-name="Path 41" d="M293.679,133.67H87.805a9.4,9.4,0,0,0-7.728,14.738l22.985,33.2a9.417,9.417,0,0,0,7.728,4.041h159.9a9.4,9.4,0,0,0,7.728-4.041l22.985-33.219a9.4,9.4,0,0,0-7.728-14.716Z" transform="translate(-74.932 -36.115)" fill="#002e5b" opacity="0.2"/>
      <path id="Path_42" data-name="Path 42" d="M294.061,170.62H85.88l67.7,145.838h72.776Z" transform="translate(-74.156 -32.273)" fill="#002e5b"/>
      <rect id="Rectangle_65" data-name="Rectangle 65" width="1.104" height="16.372" transform="translate(34.089 195.729) rotate(-24.9)" fill="#002e5b"/>
      <rect id="Rectangle_66" data-name="Rectangle 66" width="1.104" height="7.662" transform="translate(43.021 214.99) rotate(-24.9)" fill="#002e5b"/>
      <path id="Path_43" data-name="Path 43" d="M294.061,170.62H85.88l67.7,145.838h72.776Z" transform="translate(-74.156 -32.273)" opacity="0.3"/>
      <path id="Path_44" data-name="Path 44" d="M144.631,170.62H105.24L164.9,316.458h12.74Z" transform="translate(-72.142 -32.273)" opacity="0.2"/>
      <rect id="Rectangle_67" data-name="Rectangle 67" width="231.63" height="28.053" rx="4.77" transform="translate(0 110.295)" fill="#05c5db"/>
      <path id="Path_45" data-name="Path 45" d="M209.289,355.613H157.9a7.308,7.308,0,0,1-7.286-6.768L147.2,302.72h72.776l-3.444,46.125A7.3,7.3,0,0,1,209.289,355.613Z" transform="translate(-67.778 -18.534)" fill="#002e5b"/>
      <path id="Path_46" data-name="Path 46" d="M209.289,355.613H157.9a7.308,7.308,0,0,1-7.286-6.768L147.2,302.72h72.776l-3.444,46.125A7.3,7.3,0,0,1,209.289,355.613Z" transform="translate(-67.778 -18.534)" fill="#05c5db" opacity="0.2"/>
      <g id="coins-2" data-name="coins" transform="translate(79)">
        <rect id="Rectangle_35-2" data-name="Rectangle 35" width="56.26" height="9.759" transform="translate(90.373 399.753)" fill="#002e5b"/>
        <rect id="Rectangle_36-2" data-name="Rectangle 36" width="2.252" height="9.759" transform="translate(93.156 399.753)" fill="#05c5db" opacity="0.2"/>
        <rect id="Rectangle_37-2" data-name="Rectangle 37" width="2.252" height="9.759" transform="translate(99.205 399.753)" fill="#05c5db" opacity="0.2"/>
        <rect id="Rectangle_38-2" data-name="Rectangle 38" width="2.252" height="9.759" transform="translate(105.266 399.753)" fill="#05c5db" opacity="0.2"/>
        <rect id="Rectangle_39-2" data-name="Rectangle 39" width="2.252" height="9.759" transform="translate(111.327 399.753)" fill="#05c5db" opacity="0.2"/>
        <rect id="Rectangle_40-2" data-name="Rectangle 40" width="2.252" height="9.759" transform="translate(117.377 399.753)" fill="#05c5db" opacity="0.2"/>
        <rect id="Rectangle_41-2" data-name="Rectangle 41" width="2.252" height="9.759" transform="translate(123.438 399.753)" fill="#05c5db" opacity="0.2"/>
        <rect id="Rectangle_42-2" data-name="Rectangle 42" width="2.252" height="9.759" transform="translate(129.488 399.753)" fill="#05c5db" opacity="0.2"/>
        <rect id="Rectangle_43-2" data-name="Rectangle 43" width="2.252" height="9.759" transform="translate(135.549 399.753)" fill="#05c5db" opacity="0.2"/>
        <rect id="Rectangle_44-2" data-name="Rectangle 44" width="2.252" height="9.759" transform="translate(141.61 399.753)" fill="#05c5db" opacity="0.2"/>
        <rect id="Rectangle_45-2" data-name="Rectangle 45" width="56.26" height="9.759" transform="translate(88.386 389.993)" fill="#002e5b"/>
        <rect id="Rectangle_46-2" data-name="Rectangle 46" width="2.252" height="9.759" transform="translate(91.168 389.993)" fill="#05c5db" opacity="0.2"/>
        <rect id="Rectangle_47-2" data-name="Rectangle 47" width="2.252" height="9.759" transform="translate(97.218 389.993)" fill="#05c5db" opacity="0.2"/>
        <rect id="Rectangle_48-2" data-name="Rectangle 48" width="2.252" height="9.759" transform="translate(103.279 389.993)" fill="#05c5db" opacity="0.2"/>
        <rect id="Rectangle_49-2" data-name="Rectangle 49" width="2.252" height="9.759" transform="translate(109.34 389.993)" fill="#05c5db" opacity="0.2"/>
        <rect id="Rectangle_50-2" data-name="Rectangle 50" width="2.252" height="9.759" transform="translate(115.39 389.993)" fill="#05c5db" opacity="0.2"/>
        <rect id="Rectangle_51-2" data-name="Rectangle 51" width="2.252" height="9.759" transform="translate(121.451 389.993)" fill="#05c5db" opacity="0.2"/>
        <rect id="Rectangle_52-2" data-name="Rectangle 52" width="2.252" height="9.759" transform="translate(127.512 389.993)" fill="#05c5db" opacity="0.2"/>
        <rect id="Rectangle_53-2" data-name="Rectangle 53" width="2.252" height="9.759" transform="translate(133.562 389.993)" fill="#05c5db" opacity="0.2"/>
        <rect id="Rectangle_54-2" data-name="Rectangle 54" width="2.252" height="9.759" transform="translate(139.623 389.993)" fill="#05c5db" opacity="0.2"/>
        <rect id="Rectangle_55-2" data-name="Rectangle 55" width="56.26" height="9.759" transform="translate(89.965 380.234)" fill="#002e5b"/>
        <rect id="Rectangle_56-2" data-name="Rectangle 56" width="2.252" height="9.759" transform="translate(92.747 380.234)" fill="#05c5db" opacity="0.2"/>
        <rect id="Rectangle_57-2" data-name="Rectangle 57" width="2.252" height="9.759" transform="translate(98.808 380.234)" fill="#05c5db" opacity="0.2"/>
        <rect id="Rectangle_58-2" data-name="Rectangle 58" width="2.252" height="9.759" transform="translate(104.858 380.234)" fill="#05c5db" opacity="0.2"/>
        <rect id="Rectangle_59-2" data-name="Rectangle 59" width="2.252" height="9.759" transform="translate(110.919 380.234)" fill="#05c5db" opacity="0.2"/>
        <rect id="Rectangle_60-2" data-name="Rectangle 60" width="2.252" height="9.759" transform="translate(116.98 380.234)" fill="#05c5db" opacity="0.2"/>
        <rect id="Rectangle_61-2" data-name="Rectangle 61" width="2.252" height="9.759" transform="translate(123.03 380.234)" fill="#05c5db" opacity="0.2"/>
        <rect id="Rectangle_62-2" data-name="Rectangle 62" width="2.252" height="9.759" transform="translate(129.091 380.234)" fill="#05c5db" opacity="0.2"/>
        <rect id="Rectangle_63-2" data-name="Rectangle 63" width="2.252" height="9.759" transform="translate(135.141 380.234)" fill="#05c5db" opacity="0.2"/>
        <rect id="Rectangle_64-2" data-name="Rectangle 64" width="2.252" height="9.759" transform="translate(141.202 380.234)" fill="#05c5db" opacity="0.2"/>
      </g>
      <g id="coins-3" data-name="coins" transform="translate(79 -29)">
        <rect id="Rectangle_35-3" data-name="Rectangle 35" width="56.26" height="9.759" transform="translate(90.373 399.753)" fill="#002e5b"/>
        <rect id="Rectangle_36-3" data-name="Rectangle 36" width="2.252" height="9.759" transform="translate(93.156 399.753)" fill="#05c5db" opacity="0.2"/>
        <rect id="Rectangle_37-3" data-name="Rectangle 37" width="2.252" height="9.759" transform="translate(99.205 399.753)" fill="#05c5db" opacity="0.2"/>
        <rect id="Rectangle_38-3" data-name="Rectangle 38" width="2.252" height="9.759" transform="translate(105.266 399.753)" fill="#05c5db" opacity="0.2"/>
        <rect id="Rectangle_39-3" data-name="Rectangle 39" width="2.252" height="9.759" transform="translate(111.327 399.753)" fill="#05c5db" opacity="0.2"/>
        <rect id="Rectangle_40-3" data-name="Rectangle 40" width="2.252" height="9.759" transform="translate(117.377 399.753)" fill="#05c5db" opacity="0.2"/>
        <rect id="Rectangle_41-3" data-name="Rectangle 41" width="2.252" height="9.759" transform="translate(123.438 399.753)" fill="#05c5db" opacity="0.2"/>
        <rect id="Rectangle_42-3" data-name="Rectangle 42" width="2.252" height="9.759" transform="translate(129.488 399.753)" fill="#05c5db" opacity="0.2"/>
        <rect id="Rectangle_43-3" data-name="Rectangle 43" width="2.252" height="9.759" transform="translate(135.549 399.753)" fill="#05c5db" opacity="0.2"/>
        <rect id="Rectangle_44-3" data-name="Rectangle 44" width="2.252" height="9.759" transform="translate(141.61 399.753)" fill="#05c5db" opacity="0.2"/>
        <rect id="Rectangle_45-3" data-name="Rectangle 45" width="56.26" height="9.759" transform="translate(88.386 389.993)" fill="#002e5b"/>
        <rect id="Rectangle_46-3" data-name="Rectangle 46" width="2.252" height="9.759" transform="translate(91.168 389.993)" fill="#05c5db" opacity="0.2"/>
        <rect id="Rectangle_47-3" data-name="Rectangle 47" width="2.252" height="9.759" transform="translate(97.218 389.993)" fill="#05c5db" opacity="0.2"/>
        <rect id="Rectangle_48-3" data-name="Rectangle 48" width="2.252" height="9.759" transform="translate(103.279 389.993)" fill="#05c5db" opacity="0.2"/>
        <rect id="Rectangle_49-3" data-name="Rectangle 49" width="2.252" height="9.759" transform="translate(109.34 389.993)" fill="#05c5db" opacity="0.2"/>
        <rect id="Rectangle_50-3" data-name="Rectangle 50" width="2.252" height="9.759" transform="translate(115.39 389.993)" fill="#05c5db" opacity="0.2"/>
        <rect id="Rectangle_51-3" data-name="Rectangle 51" width="2.252" height="9.759" transform="translate(121.451 389.993)" fill="#05c5db" opacity="0.2"/>
        <rect id="Rectangle_52-3" data-name="Rectangle 52" width="2.252" height="9.759" transform="translate(127.512 389.993)" fill="#05c5db" opacity="0.2"/>
        <rect id="Rectangle_53-3" data-name="Rectangle 53" width="2.252" height="9.759" transform="translate(133.562 389.993)" fill="#05c5db" opacity="0.2"/>
        <rect id="Rectangle_54-3" data-name="Rectangle 54" width="2.252" height="9.759" transform="translate(139.623 389.993)" fill="#05c5db" opacity="0.2"/>
        <rect id="Rectangle_55-3" data-name="Rectangle 55" width="56.26" height="9.759" transform="translate(89.965 380.234)" fill="#002e5b"/>
        <rect id="Rectangle_56-3" data-name="Rectangle 56" width="2.252" height="9.759" transform="translate(92.747 380.234)" fill="#05c5db" opacity="0.2"/>
        <rect id="Rectangle_57-3" data-name="Rectangle 57" width="2.252" height="9.759" transform="translate(98.808 380.234)" fill="#05c5db" opacity="0.2"/>
        <rect id="Rectangle_58-3" data-name="Rectangle 58" width="2.252" height="9.759" transform="translate(104.858 380.234)" fill="#05c5db" opacity="0.2"/>
        <rect id="Rectangle_59-3" data-name="Rectangle 59" width="2.252" height="9.759" transform="translate(110.919 380.234)" fill="#05c5db" opacity="0.2"/>
        <rect id="Rectangle_60-3" data-name="Rectangle 60" width="2.252" height="9.759" transform="translate(116.98 380.234)" fill="#05c5db" opacity="0.2"/>
        <rect id="Rectangle_61-3" data-name="Rectangle 61" width="2.252" height="9.759" transform="translate(123.03 380.234)" fill="#05c5db" opacity="0.2"/>
        <rect id="Rectangle_62-3" data-name="Rectangle 62" width="2.252" height="9.759" transform="translate(129.091 380.234)" fill="#05c5db" opacity="0.2"/>
        <rect id="Rectangle_63-3" data-name="Rectangle 63" width="2.252" height="9.759" transform="translate(135.141 380.234)" fill="#05c5db" opacity="0.2"/>
        <rect id="Rectangle_64-3" data-name="Rectangle 64" width="2.252" height="9.759" transform="translate(141.202 380.234)" fill="#05c5db" opacity="0.2"/>
      </g>
    </g>
    <g id="freepik--Character--inject-2" transform="translate(384.365 142.229)">
      <path id="Path_47" data-name="Path 47" d="M331.868,409.852h-9.042l-.6-20.932h9.042Z" transform="translate(-266.853 -103.493)" fill="#ffb573"/>
      <path id="Path_48" data-name="Path 48" d="M322.23,388.92l.309,10.8h9.042l-.309-10.8Z" transform="translate(-266.853 -103.493)" opacity="0.2"/>
      <path id="Path_49" data-name="Path 49" d="M396.2,379.715l-7.916,4.361L375.65,367.13l7.916-4.35Z" transform="translate(-261.298 -106.211)" fill="#ffb573"/>
      <path id="Path_50" data-name="Path 50" d="M383.577,362.78l-7.927,4.361,6.514,8.722,7.927-4.35Z" transform="translate(-261.298 -106.211)" opacity="0.2"/>
      <path id="Path_51" data-name="Path 51" d="M367.954,180.435c-8.081-5.52-11.736-11.206-12.442-18.061,1.358,7.264,5.7,13.027,15.39,17.9a.508.508,0,0,0,.254.066.552.552,0,0,0,.243-1.049c-13.634-6.845-16.273-15.224-15.025-27.7.353-1.645.795-3.312,1.325-5.123,4.416-15.081-20.181-18.106-27.876-14.97-18.912,7.728-13.1,29.2-7.728,37.293s-12.608,13.524-2.561,36.675S363,228.04,372.525,216.006,381.489,189.764,367.954,180.435Z" transform="translate(-267.457 -130.381)" fill="#263238"/>
      <path id="Path_52" data-name="Path 52" d="M322.2,184.232c-.11,1.512-.232,2.826-.42,4.206s-.386,2.716-.607,4.063c-.442,2.7-1.1,5.376-1.689,8.037a87.634,87.634,0,0,1-5.376,15.644l-.431.949c-.166.331-.232.53-.574,1.181a8.137,8.137,0,0,1-2.727,2.9,8.49,8.49,0,0,1-3.456,1.225,11.846,11.846,0,0,1-2.937,0,25.8,25.8,0,0,1-8.655-3.014,71.759,71.759,0,0,1-13.436-9.494l2.727-3.676c2.208,1.248,4.493,2.517,6.768,3.665a66.042,66.042,0,0,0,6.867,3.091,21.1,21.1,0,0,0,6.392,1.612c.861,0,1.38-.243,1.225-.243s-.121.077-.11,0l.563-1.49a102.53,102.53,0,0,0,4.25-14.44c.552-2.473.994-4.979,1.413-7.474s.751-5.078.994-7.408Z" transform="translate(-271.049 -124.849)" fill="#ffb573"/>
      <path id="Path_53" data-name="Path 53" d="M313.3,174.219c-3.732.927-6.3,16.273-6.3,16.273l10.267,6.977s9.848-15.456,6.977-19.552C321.231,173.645,318.736,172.828,313.3,174.219Z" transform="translate(-268.437 -125.887)" fill="#002e5b"/>
      <path id="Path_54" data-name="Path 54" d="M313.3,174.219c-3.732.927-6.3,16.273-6.3,16.273l10.267,6.977s9.848-15.456,6.977-19.552C321.231,173.645,318.736,172.828,313.3,174.219Z" transform="translate(-268.437 -125.887)" fill="#05c5db" opacity="0.2"/>
      <path id="Path_55" data-name="Path 55" d="M313.279,177.26,310.42,192.7l5.763,3.919Z" transform="translate(-268.082 -125.505)" opacity="0.2"/>
      <path id="Path_56" data-name="Path 56" d="M286.553,205.5l-5.52-8.655-3.113,8.644s3.831,4.416,7.485,3.5Z" transform="translate(-271.462 -123.469)" fill="#ffb573"/>
      <path id="Path_57" data-name="Path 57" d="M275.746,193.9l-3.676,6.768,6.447,5.123,3.113-8.644Z" transform="translate(-272.07 -123.775)" fill="#ffb573"/>
      <path id="Path_58" data-name="Path 58" d="M386.118,381.694l8.081-6.149a.707.707,0,0,1,.938.055l5.8,5.686a1.457,1.457,0,0,1-.177,2.153c-2.859,2.1-4.339,2.97-7.894,5.675-2.208,1.667-5.2,4.328-8.225,6.624s-5.443-.563-4.416-1.788c4.7-5.52,4.328-7.849,5.012-10.9a2.374,2.374,0,0,1,.883-1.358Z" transform="translate(-260.847 -104.9)" fill="#263238"/>
      <path id="Path_59" data-name="Path 59" d="M324.087,406.93h10.157a.718.718,0,0,1,.729.618l1.1,8.037a1.446,1.446,0,0,1-1.446,1.6c-3.544-.055-5.244-.265-9.715-.265-2.738,0-10.632.287-14.429.287s-4-3.754-2.418-4.1c7.088-1.524,12.078-3.621,14.473-5.63a2.4,2.4,0,0,1,1.546-.552Z" transform="translate(-268.423 -101.62)" fill="#263238"/>
      <path id="Path_60" data-name="Path 60" d="M312.811,174.407s-4.306,1.512,4.317,54.549h36.708c-.618-14.937-.629-24.156,6.5-54.814a107.32,107.32,0,0,0-15.588-2.053,116.4,116.4,0,0,0-16.659,0C320.926,172.739,312.811,174.407,312.811,174.407Z" transform="translate(-267.945 -126.074)" fill="#002e5b"/>
      <path id="Path_61" data-name="Path 61" d="M312.811,174.407s-4.306,1.512,4.317,54.549h36.708c-.618-14.937-.629-24.156,6.5-54.814a107.32,107.32,0,0,0-15.588-2.053,116.4,116.4,0,0,0-16.659,0C320.926,172.739,312.811,174.407,312.811,174.407Z" transform="translate(-267.945 -126.074)" fill="#05c5db" opacity="0.2"/>
      <path id="Path_62" data-name="Path 62" d="M343.819,172.088a116.407,116.407,0,0,0-16.659,0c-2.009.177-4.085.442-6.028.718h0c-.861,3.224-.684,7.728,2.594,13.623l1.9,3.389,3.61-1.446c2.672-1.1,16.2-6.79,20.534-13.833l1.1-1.822C348.709,172.441,346.292,172.21,343.819,172.088Z" transform="translate(-267.013 -126.074)" fill="#fff"/>
      <path id="Path_63" data-name="Path 63" d="M343.4,173.828h0c-3.743-3.577-2.694-13.414-1.645-18.768l-10.234,8.766c1.038,4.173,1.192,8.6-4.78,10.035h0l-1.1.11c-1.336,2.517-1.667,6.4,1.524,12.144,0,0,14.617-5.9,18.426-12.056A13.95,13.95,0,0,0,343.4,173.828Z" transform="translate(-266.599 -127.814)" fill="#ffb573"/>
      <path id="Path_64" data-name="Path 64" d="M336.941,158.29l-6.061,5.2a16.476,16.476,0,0,1,.519,2.959c2.285-.331,5.421-2.837,5.664-5.233a7.916,7.916,0,0,0-.121-2.926Z" transform="translate(-265.954 -127.478)" opacity="0.2"/>
      <path id="Path_65" data-name="Path 65" d="M348.837,148.809c-2.683,8.567-3.632,12.243-9.119,15.622-8.258,5.089-18.194-.077-18.128-9.263.055-8.269,4.416-20.888,13.789-22.246a12.243,12.243,0,0,1,13.458,15.887Z" transform="translate(-266.92 -130.131)" fill="#ffb573"/>
      <path id="Path_66" data-name="Path 66" d="M350.082,136.528a16.748,16.748,0,0,0-10.731-4.416,3.721,3.721,0,0,0-1.976-.905c-4.162-.85-8.832.276-10.963,2.915-1.91,2.407,4.593,3.82,9.263,1.91.673,7.375,6.9,22.544,12.84,21.175C356.275,155.439,356.342,142.324,350.082,136.528Z" transform="translate(-266.454 -130.324)" fill="#263238"/>
      <path id="Path_67" data-name="Path 67" d="M317.239,223.572s-7.132,69.629-6.536,97.152c.618,28.7,11.117,94.05,11.117,94.05h12.221s-1.932-63.712-.85-91.864c1.181-30.7,10.93-99.36,10.93-99.36Z" transform="translate(-268.056 -120.691)" fill="#263238"/>
      <path id="Path_68" data-name="Path 68" d="M334.25,397.684H319.909l-1.049-4.571,16.063-.563Z" transform="translate(-267.204 -103.115)" fill="#002e5b"/>
      <path id="Path_69" data-name="Path 69" d="M331.412,239.665c-9.02,18.139-1.811,51.226,1.38,63.535,1.634-18.481,4.416-41.091,6.536-57.684C337.926,236.133,335.53,231.308,331.412,239.665Z" transform="translate(-266.354 -119.463)" opacity="0.2"/>
      <path id="Path_70" data-name="Path 70" d="M325.4,223.57s8.313,72.389,14.595,95.628c7.452,27.6,44.48,70.369,44.48,70.369l10.8-5.94s-25.679-48.024-31.387-62.564c-12.144-31.022-1.744-77.28-11.471-97.494Z" transform="translate(-266.524 -120.689)" fill="#263238"/>
      <path id="Path_71" data-name="Path 71" d="M391.715,368.952l-13.4,7.364-3.743-3.422,15.368-9.373Z" transform="translate(-261.41 -106.134)" fill="#002e5b"/>
      <path id="Path_72" data-name="Path 72" d="M333.348,146.441c-.166.707-.684,1.181-1.1,1.1s-.7-.784-.519-1.49.684-1.192,1.1-1.1S333.525,145.724,333.348,146.441Z" transform="translate(-265.872 -128.867)" fill="#263238"/>
      <path id="Path_73" data-name="Path 73" d="M326.164,144.65c-.177.707-.7,1.192-1.159,1.1s-.7-.773-.519-1.479.684-1.192,1.1-1.1S326.274,143.944,326.164,144.65Z" transform="translate(-266.625 -129.052)" fill="#263238"/>
      <path id="Path_74" data-name="Path 74" d="M325.8,143.325l-1.579-.905S324.761,143.966,325.8,143.325Z" transform="translate(-266.646 -129.129)" fill="#263238"/>
      <path id="Path_76" data-name="Path 76" d="M329.66,154.111a6.861,6.861,0,0,1-1-.16.2.2,0,0,1,.09-.38,5.232,5.232,0,0,0,4.632-1,.18.18,0,0,1,.27,0,.19.19,0,0,1,0,.27,5.442,5.442,0,0,1-3.991,1.27Z" transform="matrix(0.899, 0.438, -0.438, 0.899, -169.209, -256.628)" fill="#263238"/>
      <path id="Path_77" data-name="Path 77" d="M347.265,155.5a6.558,6.558,0,0,1-4.2,2.738c-2.263.4-3.179-1.678-2.363-3.7.729-1.822,2.782-4.217,4.968-3.709a2.948,2.948,0,0,1,1.59,4.67Z" transform="translate(-264.962 -128.262)" fill="#ffb573"/>
      <path id="Path_78" data-name="Path 78" d="M336.8,145.924a.43.43,0,0,1-.386-.331c-.442-1.932-2.793-2.915-2.815-2.926a.431.431,0,0,1-.243-.563.442.442,0,0,1,.563-.232c.11,0,2.793,1.17,3.312,3.522a.431.431,0,0,1-.32.519Z" transform="translate(-265.7 -129.189)" fill="#263238"/>
      <path id="Path_79" data-name="Path 79" d="M324.626,140.752a.464.464,0,0,1-.342-.243.431.431,0,0,1,.2-.574,4.239,4.239,0,0,1,3.908,0,.431.431,0,0,1,.144.585.42.42,0,0,1-.585.144h0a3.4,3.4,0,0,0-3.091,0,.574.574,0,0,1-.232.088Z" transform="translate(-266.644 -129.437)" fill="#263238"/>
      <path id="Path_80" data-name="Path 80" d="M362.715,183.45c1.1,5.52,1.921,10.874,2.55,16.372.331,2.738.574,5.52.762,8.28.1,1.38.155,2.782.21,4.184l.055,2.109v1.645a5.818,5.818,0,0,1-1.524,3.312,6.26,6.26,0,0,1-2.34,1.535,8.026,8.026,0,0,1-1.789.475,13.764,13.764,0,0,1-2.782.133,33.485,33.485,0,0,1-4.593-.563,76.364,76.364,0,0,1-8.247-2.142c-2.65-.85-5.255-1.766-7.838-2.727s-5.112-2.031-7.64-3.2l1.535-4.306c2.583.629,5.211,1.292,7.827,1.877s5.222,1.2,7.816,1.7,5.189.96,7.728,1.214a24.553,24.553,0,0,0,3.511.166,5.52,5.52,0,0,0,1.27-.155c.155,0,.2-.077.166-.066a1.468,1.468,0,0,0-.64.431,2.672,2.672,0,0,0-.7,1.479.839.839,0,0,0,0,.287s0-.132,0-.188v-.486l-.177-1.954-.431-3.93q-.48-3.941-1.1-7.9c-.42-2.639-.817-5.277-1.259-7.916s-.894-5.288-1.336-7.872Z" transform="translate(-266.093 -124.862)" fill="#ffb573"/>
      <path id="Path_81" data-name="Path 81" d="M356.713,173.939c3.687,1.1,8.1,13.778,8.1,13.778l-14.275,10.2s-5.2-10.565-3.654-15.324C348.5,177.649,352.562,172.659,356.713,173.939Z" transform="translate(-264.319 -125.872)" fill="#002e5b"/>
      <path id="Path_82" data-name="Path 82" d="M356.713,173.939c3.687,1.1,8.1,13.778,8.1,13.778l-14.275,10.2s-5.2-10.565-3.654-15.324C348.5,177.649,352.562,172.659,356.713,173.939Z" transform="translate(-264.319 -125.872)" fill="#05c5db" opacity="0.2"/>
      <path id="Path_83" data-name="Path 83" d="M382.891,384.807h-.11a1.236,1.236,0,0,1-.971-.7.773.773,0,0,1,0-.74c.552-1.016,3.809-1.27,4.184-1.292a.188.188,0,0,1,.2.11.221.221,0,0,1,0,.243C385.4,383.328,384.017,384.807,382.891,384.807Zm2.572-2.208c-1.292.132-3.014.486-3.312,1.027a.287.287,0,0,0,0,.32.784.784,0,0,0,.629.475c.651.011,1.623-.662,2.683-1.866Z" transform="translate(-260.667 -104.204)" fill="#002e5b"/>
      <path id="Path_84" data-name="Path 84" d="M385.635,382.726c-1.1,0-3.18-.53-3.588-1.369a.751.751,0,0,1,.21-.916,1.1,1.1,0,0,1,.894-.32c1.314.1,2.892,2.208,2.959,2.208a.232.232,0,0,1,0,.221.21.21,0,0,1-.166.121A1.666,1.666,0,0,1,385.635,382.726Zm-2.583-2.208a.718.718,0,0,0-.5.21c-.2.188-.166.32-.121.42.276.563,1.976,1.1,3.08,1.1-.563-.662-1.612-1.7-2.4-1.755Z" transform="translate(-260.64 -104.409)" fill="#002e5b"/>
      <path id="Path_85" data-name="Path 85" d="M319.666,408.575a3.367,3.367,0,0,1-2.208-.552,1.17,1.17,0,0,1-.386-1.049.673.673,0,0,1,.353-.563c1.1-.607,4.714,1.225,5.123,1.446a.214.214,0,0,1-.055.4,15.357,15.357,0,0,1-2.826.32ZM318.1,406.71a.817.817,0,0,0-.4.077.265.265,0,0,0-.144.232.8.8,0,0,0,.243.684c.552.5,2.042.574,4.041.243a11.516,11.516,0,0,0-3.743-1.236Z" transform="translate(-267.391 -101.686)" fill="#002e5b"/>
      <path id="Path_86" data-name="Path 86" d="M322.3,408.454h-.088c-1.1-.5-3.213-2.44-3.036-3.467,0-.243.21-.541.795-.607a1.59,1.59,0,0,1,1.192.375c1.1.949,1.347,3.378,1.347,3.478a.2.2,0,0,1-.088.2A.221.221,0,0,1,322.3,408.454Zm-2.208-3.665h-.132c-.386,0-.408.2-.42.243-.1.618,1.347,2.153,2.44,2.815a4.935,4.935,0,0,0-1.1-2.782A1.1,1.1,0,0,0,320.087,404.789Z" transform="translate(-267.173 -101.886)" fill="#002e5b"/>
      <path id="Path_87" data-name="Path 87" d="M333.049,145.085l-1.579-.905S332.055,145.748,333.049,145.085Z" transform="translate(-265.892 -128.946)" fill="#263238"/>
      <path id="Path_88" data-name="Path 88" d="M353.987,221.645l.938,3.312c.121.265-.177.519-.6.519h-37.79c-.331,0-.6-.166-.618-.364l-.331-3.312c0-.232.265-.42.618-.42h37.183a.673.673,0,0,1,.6.265Z" transform="translate(-267.544 -120.917)" fill="#002e5b"/>
      <path id="Path_89" data-name="Path 89" d="M345.931,225.825h.994c.2,0,.342-.1.331-.221l-.464-4.272c0-.121-.188-.232-.386-.232h-.994c-.2,0-.353.11-.342.232l.475,4.272C345.556,225.726,345.732,225.825,345.931,225.825Z" transform="translate(-264.478 -120.946)" fill="#263238"/>
      <path id="Path_90" data-name="Path 90" d="M319.08,225.825h.994c.2,0,.353-.1.331-.221l-.464-4.272c0-.121-.188-.232-.386-.232h-.994c-.2,0-.353.11-.331.232l.464,4.272C318.694,225.726,318.87,225.825,319.08,225.825Z" transform="translate(-267.27 -120.946)" fill="#263238"/>
      <path id="Path_91" data-name="Path 91" d="M332.5,225.825h.994c.2,0,.353-.1.331-.221l-.464-4.272c0-.121-.188-.232-.386-.232h-.938c-.2,0-.353.11-.331.232l.464,4.272C332.12,225.726,332.3,225.825,332.5,225.825Z" transform="translate(-265.869 -120.946)" fill="#263238"/>
      <circle id="Ellipse_8" data-name="Ellipse 8" cx="29.731" cy="29.731" r="29.731" transform="translate(2.053 55.894)" fill="#002e5b"/>
      <circle id="Ellipse_9" data-name="Ellipse 9" cx="29.731" cy="29.731" r="29.731" transform="translate(2.053 55.894)" opacity="0.4"/>
      <path id="Path_92" data-name="Path 92" d="M278.862,207a24.222,24.222,0,0,0,1.369,11.978A24.531,24.531,0,1,0,278.862,207Z" transform="translate(-271.388 -124.622)" fill="#05c5db"/>
      <path id="Path_93" data-name="Path 93" d="M280.08,216.17a24.531,24.531,0,0,0,42.747,5.807A38.839,38.839,0,0,0,280.08,216.17Z" transform="translate(-271.237 -121.868)" fill="#fff"/>
      <circle id="Ellipse_10" data-name="Ellipse 10" cx="10.93" cy="10.93" r="10.93" transform="matrix(0.332, -0.943, 0.943, 0.332, 18.977, 83.986)" fill="#fff"/>
      <path id="Path_94" data-name="Path 94" d="M332.586,207.016l-6.834-6.966-.872,9.152s4.8,3.312,8.136,1.524Z" transform="translate(-266.578 -123.135)" fill="#ffb573"/>
      <path id="Path_95" data-name="Path 95" d="M318.869,199.15l-.309,7.706,6.977,2.44.872-9.152Z" transform="translate(-267.235 -123.229)" fill="#ffb573"/>
    </g>
    <g id="Newsletter-rafiki" transform="translate(-111 21.146)">
      <g id="Group_2" data-name="Group 2" transform="translate(233.488 128.884)">
        <path id="Path_130" data-name="Path 130" d="M231.169,216.3h50.466a9.207,9.207,0,0,0,8.937-8.126l7.294-73.008a7.251,7.251,0,0,0-7.316-8.126H240.085a9.207,9.207,0,0,0-8.937,8.126l-7.283,73.008a7.229,7.229,0,0,0,7.305,8.126Z" transform="translate(-223.808 -127.039)" fill="#407bff"/>
        <path id="Path_131" data-name="Path 131" d="M231.169,216.3h50.466a9.207,9.207,0,0,0,8.937-8.126l7.294-73.008a7.251,7.251,0,0,0-7.316-8.126H240.085a9.207,9.207,0,0,0-8.937,8.126l-7.283,73.008a7.229,7.229,0,0,0,7.305,8.126Z" transform="translate(-223.808 -127.039)" fill="#fff" opacity="0.5"/>
        <path id="Path_132" data-name="Path 132" d="M238.74,163.653h43.171a2.064,2.064,0,0,0,2-1.826h0A1.621,1.621,0,0,0,282.268,160H239.151a2.064,2.064,0,0,0-2.01,1.815h0a1.632,1.632,0,0,0,1.6,1.837Z" transform="translate(-222.734 -124.381)" fill="#fff"/>
        <path id="Path_133" data-name="Path 133" d="M237.7,174.182h43.171a2.064,2.064,0,0,0,2-1.826h0a1.621,1.621,0,0,0-1.643-1.815H238a2.053,2.053,0,0,0-2,1.815h0a1.632,1.632,0,0,0,1.7,1.826Z" transform="translate(-222.826 -123.532)" fill="#fff"/>
        <rect id="Rectangle_101" data-name="Rectangle 101" width="46.813" height="3.642" rx="1.69" transform="translate(12.094 58.377)" fill="#fff"/>
        <path id="Path_134" data-name="Path 134" d="M245.013,195.273h32.981a2.064,2.064,0,0,0,2.01-1.826h0a1.632,1.632,0,0,0-1.643-1.826H245.381a2.064,2.064,0,0,0-2.01,1.826h0a1.632,1.632,0,0,0,1.643,1.826Z" transform="translate(-222.232 -121.832)" fill="#fff"/>
        <path id="Path_135" data-name="Path 135" d="M240.843,142.588h43.225a2.064,2.064,0,0,0,2-1.826h0a1.621,1.621,0,0,0-1.7-1.761H241.21a2.075,2.075,0,0,0-2.01,1.815h0a1.632,1.632,0,0,0,1.643,1.772Z" transform="translate(-222.568 -126.075)" fill="#fff"/>
        <path id="Path_136" data-name="Path 136" d="M239.794,153.122H283.02a2.064,2.064,0,0,0,2-1.826h0a1.621,1.621,0,0,0-1.643-1.815H240.151a2.064,2.064,0,0,0-2.01,1.815h0a1.632,1.632,0,0,0,1.653,1.826Z" transform="translate(-222.653 -125.23)" fill="#fff"/>
      </g>
      <g id="freepik--Character--inject-3" transform="translate(103.761 104.164)">
        <path id="Path_142" data-name="Path 142" d="M148.354,159.071c-2.723,4.787-5.468,9.726-8.1,14.643s-5.2,9.855-7.467,14.8c-.54,1.221-1.081,2.464-1.61,3.685l-.367.919-.195.454v0a3.458,3.458,0,0,0,0-1.329,4.085,4.085,0,0,0-1.308-2.161,2.453,2.453,0,0,0-1.081-.573c-.14,0-.1,0,0,0a4.614,4.614,0,0,0,1.178.14,29.172,29.172,0,0,0,3.577-.227c5.155-.648,10.752-1.891,16.21-3.037l2.248,5.792a80.562,80.562,0,0,1-16.447,6.97,30.486,30.486,0,0,1-4.874,1.016,16.523,16.523,0,0,1-3.091.1,11.26,11.26,0,0,1-2.1-.378,7.694,7.694,0,0,1-2.939-1.567,7.186,7.186,0,0,1-2.345-4,8.3,8.3,0,0,1,.065-3.447l.151-.594.086-.292v-.13l.173-.551.357-1.081c.465-1.48,1-2.853,1.513-4.269,2.161-5.554,4.593-10.86,7.2-16.058s5.4-10.223,8.429-15.269Z" transform="translate(-102.493 -100.256)" fill="#ffc3bd"/>
        <path id="Path_143" data-name="Path 143" d="M175.765,124.5c-.173.648,0,1.264.465,1.372s.9-.335,1.081-.983,0-1.254-.465-1.362S175.927,123.855,175.765,124.5Z" transform="translate(-97.961 -102.603)" fill="#263238"/>
        <path id="Path_144" data-name="Path 144" d="M175.856,125.58a24.194,24.194,0,0,0,1.686,6.322,3.825,3.825,0,0,1-3.242-.205Z" transform="translate(-98.074 -102.437)" fill="#ed847e"/>
        <path id="Path_145" data-name="Path 145" d="M174.427,120.627a.378.378,0,0,1-.194-.216.389.389,0,0,1,.216-.508,3.934,3.934,0,0,1,3.577.281.4.4,0,0,1,.086.551.389.389,0,0,1-.54.086h0a3.123,3.123,0,0,0-2.831-.184.389.389,0,0,1-.313-.011Z" transform="translate(-98.081 -102.919)" fill="#263238"/>
        <path id="Path_146" data-name="Path 146" d="M157.778,127.66c-1.7,6.16-.962,14.826-6,18.868,0,0,.454,6.149,11.7,6.149,12.384,0,7.132-6.149,7.132-6.149-6.484-1.61-5.284-6.624-3.177-11.336Z" transform="translate(-99.889 -102.269)" fill="#ffc3bd"/>
        <path id="Path_147" data-name="Path 147" d="M151.448,146.643c-.9-1.189-1.88-2.539.162-2.961,2.237-.475,14.491-.951,18.717-.076s3.037,3.242,3.037,3.242Z" transform="translate(-100 -101.023)" fill="#263238"/>
        <path id="Path_148" data-name="Path 148" d="M118.3,405.181a2.68,2.68,0,0,0,2.064-.108.8.8,0,0,0,.195-.908.908.908,0,0,0-.508-.584c-1.081-.53-3.685.519-3.793.562a.216.216,0,0,0-.13.173.2.2,0,0,0,.119.184,10.237,10.237,0,0,0,2.053.681Zm1.351-1.318.227.076a.519.519,0,0,1,.3.335c.108.357,0,.465-.065.5-.454.378-2.107,0-3.242-.432a6.354,6.354,0,0,1,2.777-.475Z" transform="translate(-102.764 -80.033)" fill="#407bff"/>
        <path id="Path_149" data-name="Path 149" d="M116.293,404.679h.1c.929-.27,2.939-1.7,2.961-2.637a.648.648,0,0,0-.5-.638,1.081,1.081,0,0,0-.875.076c-1.081.562-1.8,2.853-1.837,2.95a.184.184,0,0,0,0,.195.119.119,0,0,0,.151.054Zm2.345-2.929h.086c.238.076.238.195.238.249,0,.562-1.34,1.675-2.313,2.161a4.755,4.755,0,0,1,1.513-2.334A.681.681,0,0,1,118.638,401.75Z" transform="translate(-102.765 -80.201)" fill="#407bff"/>
        <path id="Path_150" data-name="Path 150" d="M173.52,408.96c1.081,0,2.1-.151,2.442-.627a.735.735,0,0,0,0-.854.973.973,0,0,0-.627-.475c-1.383-.378-4.323,1.275-4.4,1.351a.192.192,0,0,0,.054.357A14.252,14.252,0,0,0,173.52,408.96Zm1.318-1.61a1.354,1.354,0,0,1,.378,0,.627.627,0,0,1,.389.281c.13.238.086.357,0,.432-.389.53-2.475.54-4.02.324A8.938,8.938,0,0,1,174.839,407.35Z" transform="translate(-98.353 -79.749)" fill="#407bff"/>
        <path id="Path_151" data-name="Path 151" d="M171.015,408.879h.076c1-.454,2.983-2.237,2.831-3.177,0-.216-.195-.5-.735-.551a1.427,1.427,0,0,0-1.081.335c-1.081.864-1.275,3.1-1.286,3.242a.184.184,0,0,0,.076.173.227.227,0,0,0,.119-.022Zm2.021-3.361h.14c.346,0,.378.184.378.227.1.562-1.254,1.967-2.269,2.583a4.625,4.625,0,0,1,1.081-2.561,1.08,1.08,0,0,1,.681-.249Z" transform="translate(-98.354 -79.895)" fill="#407bff"/>
        <path id="Path_152" data-name="Path 152" d="M162.58,409.84h8.288l.821-19.17h-8.278Z" transform="translate(-99.019 -81.062)" fill="#ffc3bd"/>
        <path id="Path_153" data-name="Path 153" d="M107.73,403.733l8.094,1.751,8.137-17.863-8.1-1.751Z" transform="translate(-103.441 -81.449)" fill="#ffc3bd"/>
        <path id="Path_154" data-name="Path 154" d="M116.922,403.418l-9.088-1.967a.7.7,0,0,0-.81.4l-3.155,6.851a1.221,1.221,0,0,0,.875,1.7c3.242.627,4.766.778,8.764,1.643,2.464.529,8.018,1.88,11.411,2.615s4.571-2.518,3.242-3.123c-5.933-2.723-8.418-5.111-10.028-7.338A1.988,1.988,0,0,0,116.922,403.418Z" transform="translate(-103.761 -80.194)" fill="#263238"/>
        <path id="Path_155" data-name="Path 155" d="M171.052,407.53h-9.045a.724.724,0,0,0-.713.562l-1.632,7.359a1.2,1.2,0,0,0,1.189,1.47c3.242-.054,7.975-.238,12.081-.238,4.787,0,8.937.259,14.556.259,3.4,0,4.323-3.436,2.918-3.75-6.484-1.416-11.768-1.567-17.366-5.025a3.869,3.869,0,0,0-1.988-.637Z" transform="translate(-99.256 -79.702)" fill="#263238"/>
        <path id="Path_156" data-name="Path 156" d="M140.151,146.869c-7.759,1.783-12.471,15.907-12.471,15.907l13.313,14.87a167.3,167.3,0,0,0,8.407-14.653C153.961,153.309,148.082,145.053,140.151,146.869Z" transform="translate(-101.833 -100.741)" fill="#002e5b"/>
        <path id="Path_157" data-name="Path 157" d="M142.646,159.191c-2.161,3.069-4.15,7.564-1.913,16.3,1.751-2.81,3.469-5.684,4.949-8.288h0C146.082,160.023,144.71,156.716,142.646,159.191Z" transform="translate(-100.859 -99.792)" opacity="0.3"/>
        <path id="Path_158" data-name="Path 158" d="M187.613,152.467c1.988,7.564,3.977,25.773-1.524,66.545H141.784c-.3-6.8,3.966-39.983-2.594-72a115.354,115.354,0,0,1,14.826-1.87,163.352,163.352,0,0,1,18.835,0,75.434,75.434,0,0,1,8.44,1.3A8.245,8.245,0,0,1,187.613,152.467Z" transform="translate(-100.905 -100.882)" fill="#05c5db"/>
        <path id="Path_159" data-name="Path 159" d="M185.365,153.381h0c-7.316-6.7-12.719-7.024-14.189.335-3.08,15.421,15.064,32.03,15.594,32.505C187.71,168.791,186.608,158.86,185.365,153.381Z" transform="translate(-98.354 -100.607)" opacity="0.3"/>
        <path id="Path_160" data-name="Path 160" d="M180.712,149.49c2.377,2.637,4.614,5.317,6.894,8s4.485,5.4,6.657,8.17,4.323,5.544,6.484,8.4,4.193,5.738,6.2,8.807l-3.544-2.3c1.783.454,3.577.94,5.4,1.318s3.707.767,5.587,1.081,3.793.638,5.717.929,3.879.54,5.727.821l.389,6.2c-2.161.486-4.139.756-6.224,1.081a52.6,52.6,0,0,1-6.246.443,72.835,72.835,0,0,1-12.676-.713l-1.967-.292-1.524-2.01c-2-2.637-4.193-5.273-6.354-7.921l-6.646-7.9-13.421-15.82Z" transform="translate(-98.326 -100.509)" fill="#ffc3bd"/>
        <path id="Path_161" data-name="Path 161" d="M248.449,132.983a22.942,22.942,0,0,0-26.486,14.048c-3.879,10.45,1.686,21.126,12.427,23.839a22.942,22.942,0,0,0,26.486-14.048,17.658,17.658,0,0,0-12.427-23.839Zm-12.968,34.861a14.87,14.87,0,0,1-10.461-20.067,19.322,19.322,0,0,1,22.293-11.8,14.869,14.869,0,0,1,10.45,20.067,19.333,19.333,0,0,1-22.261,11.8Z" transform="translate(-94.33 -101.887)" fill="#263238"/>
        <path id="Path_162" data-name="Path 162" d="M235.648,166.21a13.616,13.616,0,0,1-9.574-18.371A17.7,17.7,0,0,1,246.5,137.033a13.627,13.627,0,0,1,9.6,18.371,17.7,17.7,0,0,1-20.446,10.806Z" transform="translate(-93.979 -101.549)" fill="#407bff" opacity="0.3"/>
        <g id="Group_1" data-name="Group 1" transform="translate(131.14 35.354)" opacity="0.5">
          <path id="Path_163" data-name="Path 163" d="M246.484,136.945l-.281-.065-20.046,10.6-.086.335a14.1,14.1,0,0,0-.238,9.542l28.6-15.129a14.048,14.048,0,0,0-7.953-5.284Z" transform="translate(-225.116 -136.88)" fill="#fafafa"/>
          <path id="Path_164" data-name="Path 164" d="M255.365,143.32,226.48,158.6a12.61,12.61,0,0,0,1.891,2.756l28.172-14.913A12.815,12.815,0,0,0,255.365,143.32Z" transform="translate(-225.006 -136.361)" fill="#fafafa"/>
        </g>
        <path id="Path_165" data-name="Path 165" d="M234.684,170.114l-3.415-.865a.864.864,0,0,1-.605-1.156h0a1.081,1.081,0,0,1,1.286-.681l3.415.865a.864.864,0,0,1,.605,1.156h0A1.081,1.081,0,0,1,234.684,170.114Z" transform="translate(-93.533 -99.067)" fill="#263238"/>
        <path id="Path_166" data-name="Path 166" d="M235.177,168.6c-.216,1.5-.53,2.972-.886,4.441s-.756,2.907-1.189,4.323-.908,2.874-1.4,4.323-.5,2.983-2.842,3.944a2.593,2.593,0,0,1-2.28-.357,1.491,1.491,0,0,1-.292-.292c-1.3-1.88-.1-3.134.313-4.582a31.483,31.483,0,0,1,1.761-4.2c.627-1.394,1.264-2.788,1.967-4.16s1.437-2.745,2.28-4.085a1.545,1.545,0,0,1,1.675-.259C234.864,167.885,235.221,168.263,235.177,168.6Z" transform="translate(-93.929 -99.053)" fill="#263238"/>
        <path id="Path_167" data-name="Path 167" d="M220.16,188.668l6.095.54-1.232-9.488s-4.679.086-7.013,3.339Z" transform="translate(-94.549 -98.071)" fill="#ffc3bd"/>
        <path id="Path_168" data-name="Path 168" d="M233.753,186.983l-2.042-6.138-7.251-1.135,1.232,9.5Z" transform="translate(-94.029 -98.072)" fill="#ffc3bd"/>
        <path id="Path_169" data-name="Path 169" d="M170.26,153.35c-3.188,10.99,13.551,26.119,13.551,26.119l15.032-14.718s-4.96-6.181-8.44-10.255C180.645,143.138,172.81,144.607,170.26,153.35Z" transform="translate(-98.432 -100.759)" fill="#002e5b"/>
        <path id="Path_170" data-name="Path 170" d="M171.66,390.67l-.421,9.888H162.95l.421-9.888Z" transform="translate(-98.989 -81.062)" opacity="0.2"/>
        <path id="Path_171" data-name="Path 171" d="M115.563,385.87l8.094,1.761-4.193,9.2-8.094-1.751Z" transform="translate(-103.148 -81.449)" opacity="0.2"/>
        <path id="Path_172" data-name="Path 172" d="M156.223,118.781c-1.535,8.072-2.842,12.719.14,17.82,4.474,7.673,15.215,6.484,19.127-.929,3.523-6.711,5.4-18.792-1.545-23.925a11.2,11.2,0,0,0-17.722,7.035Z" transform="translate(-99.664 -103.732)" fill="#ffc3bd"/>
        <path id="Path_173" data-name="Path 173" d="M170.415,125.734c1.686-.659,12.849-14.891-11.282-15.064-10.5-.076-9.347,20.759-1.913,24.855S172.2,131.2,170.415,125.734Z" transform="translate(-99.916 -103.639)" fill="#263238"/>
        <path id="Path_174" data-name="Path 174" d="M156.377,113.713c13.638,5.5,27.081,6.3,30.2-1.243,2.464-5.943-5.047-1.61-5.047-1.61s4.4-6.484-3.372-6.689-4.052,4.323-4.052,4.323S150.639,101.75,156.377,113.713Z" transform="translate(-99.592 -104.164)" fill="#263238"/>
        <path id="Path_175" data-name="Path 175" d="M156.686,110.83s-3.966-.249-4.906,3.242c1.167-1.351,2.594-2.485,3.577-1.437C156.773,111.544,156.686,110.83,156.686,110.83Z" transform="translate(-99.889 -103.627)" fill="#263238"/>
        <path id="Path_176" data-name="Path 176" d="M167.726,123.817a7.964,7.964,0,0,0,.465,5.047c.951,2.075,2.788,1.556,3.674-.324.789-1.686,1.264-4.8-.238-6.257S168.245,121.8,167.726,123.817Z" transform="translate(-98.621 -102.759)" fill="#ffc3bd"/>
        <path id="Path_177" data-name="Path 177" d="M172.832,213.486s-9.4,63.293-14.556,87c-5.652,25.946-34.44,109.155-34.44,109.155L109.01,406.4s21.191-77.935,24.422-103.633c3.49-27.9,10.806-89.358,10.806-89.358Z" transform="translate(-103.338 -95.355)" fill="#263238"/>
        <path id="Path_178" data-name="Path 178" d="M127.451,390.7l-2.766,5.4L108,392.454l1.416-5.014Z" transform="translate(-103.42 -81.322)" fill="#05c5db"/>
        <path id="Path_179" data-name="Path 179" d="M163.259,234.356c-10.871,2.161-9.726,42.653-8.407,63.5,3.134-14.729,7.716-43.085,10.806-63.206A3.707,3.707,0,0,0,163.259,234.356Z" transform="translate(-99.708 -93.673)" opacity="0.3"/>
        <path id="Path_180" data-name="Path 180" d="M184.785,213.48s1.081,61.92.238,87.175c-.94,26.27-10.115,112.278-10.115,112.278H160.859s-.519-84.473-1.135-110.225c-.681-28.1-4.085-89.185-4.085-89.185Z" transform="translate(-99.578 -95.349)" fill="#263238"/>
        <path id="Path_181" data-name="Path 181" d="M177.369,392.88c.065,0-.789,5.825-.789,5.825h-17.1l-.465-5.2Z" transform="translate(-99.306 -80.884)" fill="#05c5db"/>
      </g>
    </g>
  </g>
</svg>
